<?xml version="1.0" encoding="UTF-8" standalone="no"?>
<!-- Created with Inkscape (http://www.inkscape.org/) -->

<svg
   xmlns:dc="http://purl.org/dc/elements/1.1/"
   xmlns:cc="http://creativecommons.org/ns#"
   xmlns:rdf="http://www.w3.org/1999/02/22-rdf-syntax-ns#"
   xmlns:svg="http://www.w3.org/2000/svg"
   xmlns="http://www.w3.org/2000/svg"
   xmlns:sodipodi="http://sodipodi.sourceforge.net/DTD/sodipodi-0.dtd"
   xmlns:inkscape="http://www.inkscape.org/namespaces/inkscape"
   width="6480"
   height="3240"
   id="svg2"
   version="1.1"
   inkscape:version="0.48.4 r9939"
   sodipodi:docname="pattern_simple.svg"
   inkscape:export-filename="C:\Users\mjbeals\Documents\blanket\pattern.png"
   inkscape:export-xdpi="8.8900003"
   inkscape:export-ydpi="8.8900003">
  <defs
     id="defs4" />
  <sodipodi:namedview
     id="base"
     pagecolor="#ffffff"
     bordercolor="#666666"
     borderopacity="1.0"
     inkscape:pageopacity="0.0"
     inkscape:pageshadow="2"
     inkscape:zoom="0.21388889"
     inkscape:cx="2702.3377"
     inkscape:cy="1620"
     inkscape:document-units="in"
     inkscape:current-layer="g4085"
     showgrid="false"
     units="in"
     inkscape:window-width="1858"
     inkscape:window-height="1058"
     inkscape:window-x="54"
     inkscape:window-y="-8"
     inkscape:window-maximized="1"
     showguides="true"
     inkscape:guide-bbox="true">
    <sodipodi:guide
       orientation="0,1"
       position="991.16883,1620"
       id="guide4296" />
    <sodipodi:guide
       orientation="1,0"
       position="3240,3286.7532"
       id="guide4298" />
  </sodipodi:namedview>
  <metadata
     id="metadata7">
    <rdf:RDF>
      <cc:Work
         rdf:about="">
        <dc:format>image/svg+xml</dc:format>
        <dc:type
           rdf:resource="http://purl.org/dc/dcmitype/StillImage" />
        <dc:title />
      </cc:Work>
    </rdf:RDF>
  </metadata>
  <g
     inkscape:groupmode="layer"
     id="layer6"
     inkscape:label="background"
     style="display:inline"
     sodipodi:insensitive="true">
    <path
       sodipodi:type="arc"
       style="color:#000000;fill:#cccccc;fill-opacity:1;fill-rule:nonzero;stroke:#000000;stroke-width:1.12674487px;stroke-linecap:butt;stroke-linejoin:miter;stroke-miterlimit:4;stroke-opacity:1;stroke-dasharray:none;stroke-dashoffset:0;marker:none;visibility:visible;display:inline;overflow:visible;enable-background:accumulate"
       id="path4090"
       sodipodi:cx="3237.9312"
       sodipodi:cy="1740"
       sodipodi:rx="596.5517"
       sodipodi:ry="541.37933"
       d="m 3834.4828,1740 a 596.5517,541.37933 0 1 1 -1193.1033,0 596.5517,541.37933 0 1 1 1193.1033,0 z"
       transform="matrix(2.4114824,0,0,2.6572382,-4568.214,-3003.5944)" />
    <path
       sodipodi:type="arc"
       style="color:#000000;fill:#f9f9f9;fill-opacity:1;fill-rule:nonzero;stroke:#000000;stroke-width:1.12674487px;stroke-linecap:butt;stroke-linejoin:miter;stroke-miterlimit:4;stroke-opacity:1;stroke-dasharray:none;stroke-dashoffset:0;marker:none;visibility:visible;display:inline;overflow:visible;enable-background:accumulate"
       id="path4090-4"
       sodipodi:cx="3237.9312"
       sodipodi:cy="1740"
       sodipodi:rx="596.5517"
       sodipodi:ry="541.37933"
       d="m 3834.4828,1740 a 596.5517,541.37933 0 1 1 -1193.1033,0 596.5517,541.37933 0 1 1 1193.1033,0 z"
       transform="matrix(2.1100471,0,0,2.3250835,-3592.1872,-2425.6453)" />
    <rect
       style="color:#000000;fill:#000000;fill-opacity:1;fill-rule:nonzero;stroke:#000000;stroke-width:2.8522191px;stroke-linecap:butt;stroke-linejoin:miter;stroke-miterlimit:4;stroke-opacity:1;stroke-dasharray:none;stroke-dashoffset:0;marker:none;visibility:visible;display:inline;overflow:visible;enable-background:accumulate"
       id="rect4206"
       width="6494.7368"
       height="3247.3684"
       x="-5.2631578"
       y="-2.1052632" />
  </g>
  <g
     inkscape:groupmode="layer"
     id="layer2"
     inkscape:label="stripes"
     style="display:inline"
     sodipodi:insensitive="true">
    <path
       style="color:#000000;fill:#ff0000;fill-opacity:1;fill-rule:nonzero;stroke:#000000;stroke-width:1.12674487px;stroke-linecap:butt;stroke-linejoin:miter;stroke-miterlimit:4;stroke-opacity:1;stroke-dasharray:none;stroke-dashoffset:0;marker:none;visibility:visible;display:inline;overflow:visible;enable-background:accumulate"
       d="m 1767.8438,945.5625 -1767.2813,0 0,1348.875 1767.2813,0 c -1.2525,-2.7293 -2.5749,-5.4188 -3.8126,-8.1563 -5.4042,-11.9531 -10.6609,-23.9879 -15.7812,-36.0937 -5.1203,-12.1058 -10.1054,-24.3084 -14.9375,-36.5625 -4.8321,-12.2541 -9.5229,-24.5705 -14.0625,-36.9688 -4.5396,-12.3982 -8.9134,-24.8681 -13.1562,-37.4062 -4.2429,-12.5381 -8.3393,-25.1387 -12.2813,-37.8125 -3.942,-12.6738 -7.7382,-25.4136 -11.375,-38.2187 -3.6368,-12.8052 -7.1102,-25.6927 -10.4375,-38.625 -3.3273,-12.9324 -6.5176,-25.9135 -9.5312,-38.9688 -3.0137,-13.0553 -5.8668,-26.1698 -8.5626,-39.3438 -2.6957,-13.1739 -5.2201,-26.399 -7.5937,-39.6874 -2.3736,-13.2885 -4.5777,-26.6327 -6.625,-40.0313 -2.0473,-13.3986 -3.9396,-26.8704 -5.6563,-40.375 -1.7166,-13.5046 -3.2744,-27.0499 -4.6562,-40.6563 -1.3818,-13.6063 -2.5823,-27.2649 -3.625,-40.9687 -1.0427,-13.7038 -1.9256,-27.4529 -2.625,-41.25 -0.6994,-13.7971 -1.2107,-27.6451 -1.5625,-41.5313 -0.3518,-13.8861 -0.5313,-27.8103 -0.5313,-41.7812 0,-13.9709 0.1795,-27.8951 0.5313,-41.7812 0.3518,-13.8862 0.8631,-27.7342 1.5625,-41.5313 0.6994,-13.7971 1.5823,-27.5462 2.625,-41.25 1.0427,-13.7038 2.2432,-27.3624 3.625,-40.9687 1.3818,-13.6064 2.9396,-27.1517 4.6562,-40.6563 1.7167,-13.5046 3.609,-26.9764 5.6563,-40.375 2.0473,-13.3986 4.2514,-26.7428 6.625,-40.0313 2.3736,-13.2884 4.898,-26.5135 7.5937,-39.6874 2.6958,-13.174 5.5489,-26.2885 8.5626,-39.3438 3.0136,-13.0553 6.2039,-26.0364 9.5312,-38.9688 3.3273,-12.9323 6.8007,-25.8198 10.4375,-38.625 3.6368,-12.8051 7.433,-25.5449 11.375,-38.2187 3.942,-12.6738 8.0384,-25.2744 12.2813,-37.8125 4.2428,-12.5381 8.6166,-25.008 13.1562,-37.4062 4.5396,-12.3983 9.2304,-24.7147 14.0625,-36.9688 4.8321,-12.2541 9.8172,-24.4567 14.9375,-36.5625 5.1203,-12.10576 10.377,-24.14059 15.7812,-36.09375 1.2377,-2.73745 2.5601,-5.42694 3.8126,-8.15625 z"
       id="path3981"
       inkscape:connector-curvature="0" />
    <path
       style="color:#000000;fill:#ff0000;fill-opacity:1;fill-rule:nonzero;stroke:#000000;stroke-width:1.12674487px;stroke-linecap:butt;stroke-linejoin:miter;stroke-miterlimit:4;stroke-opacity:1;stroke-dasharray:none;stroke-dashoffset:0;marker:none;visibility:visible;display:inline;overflow:visible;enable-background:accumulate"
       d="m 0.65625,473.15625 0,336.1875 1837.65625,0 c 71.4525,-123.27923 158.6922,-236.26969 258.9687,-336.1875 l -2096.62495,0 z"
       id="rect3784"
       inkscape:connector-curvature="0" />
    <path
       style="color:#000000;fill:#ff0000;fill-opacity:1;fill-rule:nonzero;stroke:#000000;stroke-width:1.12674487px;stroke-linecap:butt;stroke-linejoin:miter;stroke-miterlimit:4;stroke-opacity:1;stroke-dasharray:none;stroke-dashoffset:0;marker:none;visibility:visible;display:inline;overflow:visible;enable-background:accumulate"
       d="m 1838.375,2430.6562 -1838.71875,0 0,336.1876 2097.68755,0 c -0.6992,-0.6967 -1.4272,-1.3647 -2.125,-2.0626 -9.1556,-9.1555 -18.2212,-18.4095 -27.1563,-27.7812 -8.9351,-9.3717 -17.7583,-18.8538 -26.4687,-28.4375 -8.7105,-9.5837 -17.2997,-19.2711 -25.7813,-29.0625 -8.4816,-9.7914 -16.8453,-19.6927 -25.0937,-29.6875 -8.2485,-9.9948 -16.3952,-20.0872 -24.4063,-30.2813 -8.0111,-10.194 -15.8868,-20.4859 -23.6563,-30.875 -7.7694,-10.389 -15.4138,-20.8577 -22.9374,-31.4374 -7.5237,-10.5798 -14.914,-21.265 -22.1876,-32.0313 -7.2735,-10.7663 -14.4495,-21.6139 -21.4687,-32.5625 -7.0192,-10.9486 -13.8956,-21.9984 -20.6563,-33.125 -5.7938,-9.5353 -11.4302,-19.1806 -17.0312,-28.8438 z"
       id="path4014"
       inkscape:connector-curvature="0" />
    <path
       style="color:#000000;fill:#ff0000;fill-opacity:1;fill-rule:nonzero;stroke:#000000;stroke-width:1.12674487px;stroke-linecap:butt;stroke-linejoin:miter;stroke-miterlimit:4;stroke-opacity:1;stroke-dasharray:none;stroke-dashoffset:0;marker:none;visibility:visible;display:inline;overflow:visible;enable-background:accumulate"
       d="m 4712.1875,2294.375 1775.3437,0 0,-1348.875 -1775.4062,0 c 1.2623,2.75042 2.5965,5.46006 3.8438,8.21875 5.4042,11.95316 10.6609,23.98799 15.7812,36.09375 5.1203,12.1058 10.1054,24.3084 14.9375,36.5625 4.8321,12.2541 9.5229,24.5705 14.0625,36.9688 4.5396,12.3982 8.9134,24.8681 13.1562,37.4062 4.2429,12.5381 8.3393,25.1387 12.2813,37.8125 3.942,12.6738 7.7382,25.4136 11.375,38.2187 3.6368,12.8052 7.1102,25.6927 10.4375,38.625 3.3273,12.9324 6.5176,25.9135 9.5312,38.9688 3.0137,13.0553 5.8668,26.1698 8.5626,39.3438 2.6957,13.1739 5.2201,26.399 7.5937,39.6874 2.3736,13.2885 4.5777,26.6327 6.625,40.0313 2.0473,13.3986 3.9396,26.8704 5.6563,40.375 1.7166,13.5046 3.2744,27.0499 4.6562,40.6563 1.3818,13.6063 2.5823,27.2649 3.625,40.9687 1.0427,13.7038 1.9256,27.4529 2.625,41.25 0.6994,13.7971 1.2107,27.6451 1.5625,41.5313 0.3518,13.8861 0.5313,27.8103 0.5313,41.7812 0,13.9709 -0.1795,27.8951 -0.5313,41.7812 -0.3518,13.8862 -0.8631,27.7342 -1.5625,41.5313 -0.6994,13.7971 -1.5823,27.5462 -2.625,41.25 -1.0427,13.7038 -2.2432,27.3624 -3.625,40.9687 -1.3818,13.6064 -2.9396,27.1517 -4.6562,40.6563 -1.7167,13.5046 -3.609,26.9764 -5.6563,40.375 -2.0473,13.3986 -4.2514,26.7428 -6.625,40.0313 -2.3736,13.2884 -4.898,26.5135 -7.5937,39.6874 -2.6958,13.174 -5.5489,26.2885 -8.5626,39.3438 -3.0136,13.0553 -6.2039,26.0364 -9.5312,38.9688 -3.3273,12.9323 -6.8007,25.8198 -10.4375,38.625 -3.6368,12.8051 -7.433,25.5449 -11.375,38.2187 -3.942,12.6738 -8.0384,25.2744 -12.2813,37.8125 -4.2428,12.5381 -8.6166,25.008 -13.1562,37.4062 -4.5396,12.3983 -9.2304,24.7147 -14.0625,36.9688 -4.8321,12.2541 -9.8172,24.4567 -14.9375,36.5625 -5.1203,12.1058 -10.377,24.1406 -15.7812,36.0937 -1.2281,2.7163 -2.5387,5.3856 -3.7813,8.0938 z"
       id="path4062"
       inkscape:connector-curvature="0" />
    <path
       style="color:#000000;fill:#ff0000;fill-opacity:1;fill-rule:nonzero;stroke:#000000;stroke-width:1.12674487px;stroke-linecap:butt;stroke-linejoin:miter;stroke-miterlimit:4;stroke-opacity:1;stroke-dasharray:none;stroke-dashoffset:0;marker:none;visibility:visible;display:inline;overflow:visible;enable-background:accumulate"
       d="m 4641.5938,809.28125 1846.6874,0 0,-336.1875 -2105.6874,0 c 0.72,0.71737 1.4687,1.40628 2.1874,2.125 9.1556,9.15555 18.2212,18.40952 27.1563,27.78125 8.9351,9.37173 17.7583,18.85383 26.4687,28.4375 8.7105,9.58367 17.2997,19.27113 25.7813,29.0625 8.4816,9.79137 16.8453,19.69267 25.0937,29.6875 8.2485,9.99483 16.3952,20.0872 24.4063,30.28125 8.0111,10.19405 15.8868,20.48597 23.6563,30.875 7.7694,10.38903 15.4138,20.85772 22.9374,31.4375 7.5237,10.57978 14.914,21.26496 22.1876,32.03125 7.2735,10.76629 14.4495,21.61395 21.4687,32.5625 7.0192,10.94855 13.8956,21.99842 20.6563,33.125 5.7817,9.51549 11.4102,19.13843 17,28.78125 z"
       id="path4041"
       inkscape:connector-curvature="0" />
    <path
       style="color:#000000;fill:#ff0000;fill-opacity:1;fill-rule:nonzero;stroke:#000000;stroke-width:1.12674487px;stroke-linecap:butt;stroke-linejoin:miter;stroke-miterlimit:4;stroke-opacity:1;stroke-dasharray:none;stroke-dashoffset:0;marker:none;visibility:visible;display:inline;overflow:visible;enable-background:accumulate"
       d="m 4382.75,2766.7812 2104.5312,0 0,-336.1874 -1845.625,0 c -5.6122,9.6835 -11.2566,19.351 -17.0624,28.9062 -6.7607,11.1266 -13.6371,22.1764 -20.6563,33.125 -7.0192,10.9486 -14.1952,21.7962 -21.4687,32.5625 -7.2736,10.7663 -14.6639,21.4515 -22.1876,32.0313 -7.5236,10.5797 -15.168,21.0484 -22.9374,31.4374 -7.7695,10.3891 -15.6452,20.681 -23.6563,30.875 -8.0111,10.1941 -16.1578,20.2865 -24.4063,30.2813 -8.2484,9.9948 -16.6121,19.8961 -25.0937,29.6875 -8.4816,9.7914 -17.0708,19.4788 -25.7813,29.0625 -8.7104,9.5837 -17.5336,19.0658 -26.4687,28.4375 -8.9351,9.3717 -18.0007,18.6257 -27.1563,27.7812 -0.6717,0.6718 -1.3582,1.3294 -2.0312,2 z"
       id="path4083"
       inkscape:connector-curvature="0" />
  </g>
  <g
     inkscape:groupmode="layer"
     id="layer7"
     inkscape:label="Ring"
     style="display:inline"
     sodipodi:insensitive="true">
    <path
       style="color:#000000;fill:#ff0000;fill-opacity:1;fill-rule:nonzero;stroke:#000000;stroke-width:2.8522191px;stroke-linecap:butt;stroke-linejoin:miter;stroke-miterlimit:4;stroke-opacity:1;stroke-dasharray:none;stroke-dashoffset:0;marker:none;visibility:visible;display:inline;overflow:visible;enable-background:accumulate"
       d="m 3240,181.4375 c -794.5024,0 -1438.5625,644.0601 -1438.5625,1438.5625 0,794.5024 644.0601,1438.5625 1438.5625,1438.5625 794.5024,0 1438.5625,-644.0601 1438.5625,-1438.5625 C 4678.5625,825.4976 4034.5024,181.4375 3240,181.4375 z m 0,179.8125 c 695.1896,0 1258.75,563.56038 1258.75,1258.75 0,695.1896 -563.5604,1258.75 -1258.75,1258.75 -695.1896,0 -1258.75,-563.5604 -1258.75,-1258.75 0,-695.18962 563.5604,-1258.75 1258.75,-1258.75 z"
       id="path4090-6"
       inkscape:connector-curvature="0" />
  </g>
  <g
     inkscape:label="with_text-small"
     inkscape:groupmode="layer"
     id="layer1"
     transform="translate(0,2187.6403)"
     style="display:none">
    <path
       style="fill:#ff0000"
       d="M 3149.9785,779.70238 C 3003.4398,770.84868 2844.3479,732.47862 2706.2004,672.67169 2388.8531,535.28574 2137.0853,283.51796 1999.6994,-33.829041 1893.1668,-279.90795 1863.0336,-560.03479 1914.5355,-825.53721 c 63.2943,-326.29379 245.1799,-617.26359 512.8103,-820.36229 302.2595,-229.3779 695.1497,-320.1433 1070.5627,-247.3211 264.4337,51.2945 504.6785,179.3151 696.5234,371.1599 271.0047,271.0048 413.0873,638.87042 393.8388,1019.68818 -3.6859,72.92497 -10.1909,128.14659 -22.679,192.52474 -69.2164,356.824674 -280.0779,670.52195 -585.6934,871.33164 -245.9905,161.63215 -530.0945,236.33433 -829.9198,218.21852 z m 203.3564,-87.44869 c 5.09,-1.95694 11.0063,-13.82062 29.4922,-59.14052 24.6992,-60.55202 29.4823,-69.80046 33.8435,-65.4393 1.4851,1.48524 4.967,27.73971 7.7374,58.34325 2.7704,30.60352 6.2438,56.84959 7.7188,58.32452 1.5254,1.5253 7.5395,1.86099 13.9465,0.7785 10.9837,-1.85566 11.2649,-2.177 11.2649,-12.86363 0,-6.02824 -1.9749,-31.9455 -4.3891,-57.59391 -2.4142,-25.64839 -3.7584,-48.27835 -2.9869,-50.28881 0.7714,-2.01046 5.385,-4.45177 10.252,-5.42517 8.5789,-1.7158 8.8025,-2.11542 7.3292,-13.10048 -0.8359,-6.2319 -2.5456,-12.27087 -3.7997,-13.41999 -2.6003,-2.38317 -72.8636,4.79393 -75.5436,7.71647 -0.9657,1.05305 -11.2127,25.42982 -22.7712,54.1706 -23.8485,59.30024 -24.4404,60.47247 -29.5142,58.45855 -2.0434,-0.81109 -17.7426,-24.50663 -34.8868,-52.65674 l -31.1712,-51.18198 -11.4587,0.042 c -6.3022,0.022 -13.0597,1.0579 -15.0169,2.29942 -2.6449,1.67797 6.4139,18.78417 35.2971,66.65297 21.3703,35.41763 40.6365,67.18042 42.8137,70.58395 4.2904,6.70752 19.4838,8.49204 31.843,3.74019 z m -316.0831,-26.972 c 71.8103,-65.54728 122.9797,-114.74324 121.1283,-116.4565 -1.9538,-1.80762 -138.247,-19.24947 -149.8192,-19.17283 -2.5311,0.0166 -8.2793,3.12459 -12.7736,6.90626 -4.4943,3.7817 -8.884,6.8758 -9.7549,6.8758 -0.871,0 -1.311,-4.64116 -0.9783,-10.31369 l 0.6053,-10.31367 -30.2534,-10.10829 c -16.6393,-5.55954 -33.1354,-10.20069 -36.6577,-10.31367 -4.6376,-0.1488 -18.1201,10.9872 -48.8663,40.36174 -23.3537,22.31192 -44.3002,40.96801 -46.5472,41.45798 -2.2472,0.48997 -4.673,-0.74768 -5.3908,-2.75031 -0.7175,-2.00265 -4.4846,-29.01282 -8.3708,-60.02261 -3.9333,-31.38317 -8.5339,-57.74557 -10.3756,-59.45807 -1.8205,-1.69216 -7.3148,-4.4065 -12.21,-6.03189 -4.8954,-1.62535 -40.4569,-21.59018 -79.0256,-44.36625 -38.5688,-22.7761 -71.6928,-41.33511 -73.6089,-41.24228 -1.9162,0.093 -9.6722,2.9873 -17.2357,6.4322 l -13.7515,6.26335 13.7515,8.79194 c 7.5635,4.83555 28.9102,17.72103 47.4373,28.63433 21.7752,12.82677 33.4332,21.28836 32.9728,23.93201 -0.461,2.64682 -24.7162,12.80343 -68.7517,28.78901 -37.422,13.5847 -68.0398,25.97937 -68.0398,27.54376 0,3.51839 21.6391,15.22933 28.1211,15.21892 2.6088,-0.005 43.3405,-13.62171 90.5147,-30.26111 47.1744,-16.6394 87.4056,-30.25345 89.4025,-30.25345 4.781,0 4.8641,0.48759 14.7981,86.63488 4.7097,40.84216 9.4075,75.02223 10.4394,75.95568 1.032,0.93343 7.9394,3.70583 15.3498,6.16083 l 13.4738,4.46368 12.6542,-11.54647 c 6.96,-6.35059 29.0653,-27.06876 49.1234,-46.04043 20.058,-18.97163 37.6935,-34.90625 39.1906,-35.41021 7.2251,-2.43262 4.3598,11.2709 -12.2336,58.50408 -9.9255,28.25173 -18.046,53.03082 -18.046,55.06461 0,3.76907 13.5058,9.73658 22.0358,9.73658 3.6108,0 8.103,-9.80905 19.2079,-41.94228 23.4051,-67.7245 24.7102,-70.8206 29.8502,-70.8206 2.5801,0 7.3227,1.84335 10.5394,4.09629 3.6556,2.56058 26.1558,6.58058 60.015,10.72263 29.7919,3.64449 55.437,7.89634 56.9893,9.44859 1.9293,1.92947 -0.9842,6.35694 -9.21,13.99591 -13.5263,12.56126 -20.0935,13.54568 -55.8697,8.37501 l -19.0844,-2.75826 -11.7373,11.51928 c -6.4554,6.33562 -11.1791,12.42248 -10.4968,13.52638 0.6824,1.10391 11.24,2.89224 23.4616,3.97412 15.9164,1.40893 22.672,3.14203 23.8101,6.10849 1.0651,2.77534 -6.3151,11.41991 -22.3733,26.2061 -13.1793,12.13551 -22.9588,23.03495 -21.7319,24.22095 2.1634,2.09146 12.2167,4.07351 24.9442,4.91783 4.0684,0.2698 12.1366,-4.99564 23.3777,-15.25635 z m 577.4891,-35.01583 c 1.2537,-6.06319 1.1565,-11.8821 -0.2226,-13.25985 -3.3302,-3.33014 -118.7312,-11.41087 -121.3949,-8.50044 -4.2894,4.68687 -5.9583,22.94918 -2.2264,24.35971 3.9452,1.49102 107.6378,9.13011 116.2203,8.56201 3.9529,-0.26158 5.9837,-3.23526 7.6223,-11.16143 z m 88.7288,-10.80358 c 6.0615,-1.82651 11.363,-5.29966 11.8355,-7.75374 0.9133,-4.74212 -37.0608,-137.03021 -40.3071,-140.41517 -2.8057,-2.92606 -22.4458,3.08565 -24.0916,7.37439 -0.7702,2.00678 4.9519,25.47875 12.7158,52.15992 14.0723,48.36225 15.5553,58.79726 8.1118,57.08166 -2.1601,-0.49793 -35.3967,-17.6702 -73.8583,-38.16062 -38.462,-20.49044 -72.6442,-37.25534 -75.9603,-37.25534 -9.8022,0 -26.4419,6.45512 -25.3195,9.8223 1.2571,3.77215 84.9713,52.57924 138.1378,80.53762 40.736,21.42153 47.4119,23.0347 68.7359,16.60898 z m 142.0144,-73.71293 c 18.1086,-10.82815 33.9384,-21.65751 35.177,-24.06525 1.2384,-2.40769 3.0485,-9.32824 4.0219,-15.37892 0.9736,-6.0507 5.0582,-25.54087 9.0773,-43.31155 4.0191,-17.77065 6.5967,-33.02109 5.7279,-33.88989 -2.7124,-2.7123 -24.1879,12.45543 -26.7006,18.85794 -1.3139,3.34812 -6.572,19.69338 -11.6847,36.32274 -6.081,19.77804 -10.7593,30.51702 -13.5267,31.04998 -2.8906,0.55663 -14.1299,-15.42786 -35.4798,-50.45867 -17.1874,-28.20038 -32.8428,-51.88492 -34.7906,-52.63237 -3.9145,-1.50209 -22.9333,9.25123 -22.9333,12.96656 0,1.28742 14.2329,25.53723 31.6286,53.88853 17.3958,28.35129 31.6287,52.49565 31.6287,53.6541 0,4.85794 -6.0189,4.32031 -39.9412,-3.56779 l -35.6925,-8.29973 -14.4392,7.48639 c -7.9414,4.11752 -14.439,8.52459 -14.439,9.79353 0,1.26892 4.6411,3.57933 10.3136,5.13425 5.6726,1.55493 25.1652,7.03287 43.3175,12.1732 18.1521,5.14033 35.8849,9.4852 39.4066,9.65527 3.5218,0.16998 21.2196,-8.55014 39.3285,-19.37832 z M 3372.0787,487.2445 c 241.2425,-32.67135 450.2139,-135.3203 618.9077,-304.01424 169.4351,-169.435081 271.8372,-378.59511 304.3558,-621.65798 3.9523,-29.53898 4.9677,-55.96433 4.9677,-129.26476 0,-73.30049 -1.0154,-99.72579 -4.9677,-129.26472 -32.5186,-243.06296 -134.9207,-452.223 -304.3558,-621.658 -169.4349,-169.4351 -378.5951,-271.8371 -621.6581,-304.356 -29.5389,-3.9518 -55.9642,-4.9674 -129.2647,-4.9674 -73.3003,0 -99.7257,1.0156 -129.2649,4.9674 -243.0628,32.5189 -452.2228,134.9209 -621.6578,304.356 -169.4354,169.435 -271.8371,378.59504 -304.3561,621.658 -7.1211,53.22706 -7.1301,205.18355 -0.027,258.52948 32.3724,242.72682 134.952,452.238216 304.3716,621.65798 180.8548,180.8548 401.0716,282.86726 667.0382,308.99638 6.0508,0.59442 49.3683,0.76421 96.2611,0.3773 61.2605,-0.50548 94.9367,-2.01408 119.6388,-5.35944 z M 3182.3069,449.47133 C 2972.1117,439.716 2751.486,350.16793 2576.1289,203.43462 2536.424,170.21087 2474.3101,107.12014 2443.8289,69.054221 2330.7231,-72.196451 2255.4603,-254.98435 2229.2111,-452.1793 c -6.1752,-46.39143 -8.4206,-156.82042 -4.1468,-203.93917 13.0835,-144.24543 57.9914,-283.25239 134.701,-416.94913 126.8107,-221.0175 308.6084,-372.3143 544.085,-452.8018 327.8601,-112.0649 644.3948,-67.0109 929.8996,132.3571 210.4024,146.9242 350.5155,366.4638 403.3011,631.92266 14.3564,72.19795 18.3834,109.06413 19.9131,182.30267 1.48,70.85349 -1.0422,111.97581 -10.4936,171.10479 -38.3819,240.12027 -180.0267,483.911628 -369.709,636.3241 -186.6284,149.95848 -446.6511,232.83018 -694.4546,221.32941 z m 167.7692,-75.12686 c 89.652,-12.41017 173.777,-36.12565 261.2801,-73.65685 17.3957,-7.46127 33.3341,-15.19557 35.4185,-17.18737 3.1992,-3.05684 1.7457,-7.41019 -9.323,-27.92397 -20.1238,-37.29588 -14.6415,-35.70205 -59.0417,-17.16554 -43.8016,18.28666 -108.3103,39.5071 -113.7515,37.41913 -2.0195,-0.77504 -7.1079,-13.59253 -11.3067,-28.48328 -4.199,-14.89074 -8.7334,-28.43932 -10.0763,-30.10795 -1.7518,-2.17645 -10.2841,-1.26658 -30.1907,3.21955 -110.0306,24.79596 -232.9647,24.66425 -344.6702,-0.36929 -16.5044,-3.69869 -30.5713,-6.16159 -31.2596,-5.47316 -0.6884,0.68847 -4.7772,13.90023 -9.0864,29.35952 -4.3091,15.45927 -9.2922,29.0086 -11.0738,30.10964 -6.1677,3.81191 -85.8277,-21.98427 -127.8707,-41.40827 -13.1298,-6.06591 -24.8671,-11.02898 -26.0824,-11.02898 -2.723,0 -32.7749,52.65142 -32.7749,57.42187 0,3.96519 34.6135,20.51613 78.3838,37.48048 84.0742,32.58495 168.2055,52.8938 255.7794,61.74369 35.9287,3.63084 148.1301,1.24397 185.6461,-3.94922 z M 2728.5052,184.25926 c 8.3197,-14.47073 15.4925,-27.30809 15.9394,-28.52741 0.4469,-1.21935 -13.1672,-12.76538 -30.2534,-25.65782 -41.2812,-31.148592 -87.1966,-72.862941 -89.2628,-81.095703 -1.394,-5.553405 1.7803,-10.085864 19.6551,-28.066234 l 21.3176,-21.44333521 -26.7536,-29.86413879 c -78.7512,-87.907299 -137.9079,-191.579659 -170.4464,-298.707349 -4.0201,-13.23589 -8.1627,-24.04044 -9.2056,-24.01013 -1.043,0.0303 -13.654,3.09963 -28.0243,6.82066 -35.0266,9.06975 -34.9488,9.07939 -38.6876,-4.80542 -5.9894,-22.24304 -16.1339,-78.15802 -20.3317,-112.06643 -2.4621,-19.88807 -5.6513,-35.01702 -7.665,-36.36382 -1.8967,-1.26848 -7.0071,-1.65393 -11.3559,-0.85652 -4.349,0.79736 -18.4504,1.44976 -31.3365,1.44976 l -23.4293,0 1.8468,22.69009 c 7.9987,98.28115 37.0803,212.89898 76.8041,302.70535 43.856,99.147989 100.306,180.4360798 181.8794,261.905978 52.2593,52.193082 138.052,122.035902 150.0575,122.160222 2.3474,0.0248 10.6458,-11.29851 19.2522,-26.26775 z m 1071.479,8.16329 c 40.5974,-30.17145 69.3409,-55.19379 108.4409,-94.401473 118.7867,-119.114598 206.1403,-273.638267 247.6591,-438.094507 9.9963,-39.59599 21.1466,-103.5463 23.5851,-135.26875 l 1.7456,-22.70946 -30.5758,-1.74942 c -16.8164,-0.96217 -32.2464,-1.10808 -34.2894,-0.3242 -2.5037,0.96072 -4.8336,11.47 -7.1493,32.24893 -3.8224,34.29533 -14.4893,92.38148 -20.9767,114.22749 -4.9847,16.78485 -4.67,16.7243 -38.412,7.3908 -13.6032,-3.76287 -26.1405,-6.85697 -27.8603,-6.87579 -1.72,-0.0193 -9.4289,18.51764 -17.1311,41.19201 -25.0772,73.8247 -58.4443,140.02649 -103.4339,205.21692 -20.7419,30.054879 -58.6238,76.973949 -74.0354,91.697501 -5.4566,5.2129168 -9.9212,11.4320988 -9.9212,13.8203838 0,2.388318 9.2822,13.5627432 20.6273,24.8320672 11.3451,11.269315 20.6274,21.946629 20.6274,23.727338 0,5.496558 -51.8869,52.68719 -86.6349,78.79369 -18.1522,13.63783 -33.3958,26.42895 -33.8748,28.42479 -1.1871,4.94681 29.5925,56.07553 33.7576,56.07553 1.832,0 14.365,-8.20071 27.8518,-18.22385 z m -290.66,-177.543195 c 30.1784,-13.8596522 89.0513,-48.912826 104.5059,-62.223356 l 11.8997,-10.24877 -87.1997,-113.892959 c -47.9599,-62.64112 -89.0192,-116.66917 -91.2425,-120.06234 -3.8045,-5.80644 -3.4256,-6.70099 6.442,-15.20437 39.4241,-33.97351 70.223,-73.51934 90.2694,-115.9062 12.0597,-25.49887 26.1025,-68.73832 26.1025,-80.37237 0,-14.55569 -1.197,-14.63191 154.0278,9.80568 92.5521,14.57077 146.6436,21.97817 148.268,20.30405 8.6266,-8.89011 10.8332,-162.63808 2.4478,-170.54493 -2.8457,-2.68345 -33.7581,0.61794 -150.0421,16.02443 -80.5517,10.67233 -147.2041,18.65795 -148.1163,17.74581 -0.9121,-0.91213 -3.3785,-10.70857 -5.4809,-21.76979 -8.7999,-46.29478 -28.9113,-93.99868 -55.2652,-131.08701 -7.1475,-10.05901 -24.4864,-29.86895 -38.5306,-44.02208 -15.0518,-15.16864 -24.7516,-27.02435 -23.627,-28.8783 1.0495,-1.72987 41.7631,-52.16553 90.4747,-112.07921 48.711,-59.91354 90.2332,-111.67144 92.2713,-115.01734 3.3691,-5.5315 2.9568,-6.7056 -4.5454,-12.9394 -29.3797,-24.4117 -125.5812,-80.7991 -137.7656,-80.7491 -4.3341,0.017 -15.0936,23.8276 -61.6324,136.3868 -31.0098,75.00084 -58.0358,137.04693 -60.0581,137.88007 -2.0221,0.83314 -16.2549,-2.38928 -31.6286,-7.16109 -41.0692,-12.74735 -56.7626,-15.14296 -99.4603,-15.18291 -40.3737,-0.0375 -56.079,2.26287 -95.3714,13.96997 -13.125,3.91052 -25.5917,6.44693 -27.7034,5.63655 -2.112,-0.81039 -25.6865,-58.21855 -52.3879,-127.57359 -26.7015,-69.3552 -50.6664,-131.4688 -53.2552,-138.0305 -4.3876,-11.1196 -5.268,-11.8182 -12.9562,-10.2805 -22.5317,4.5065 -144.7449,73.749 -144.7449,82.0085 0,1.3583 40.9282,55.5893 90.9516,120.51324 l 90.9513,118.04351 -31.3489,30.96831 c -48.8427,48.24962 -76.1005,94.65559 -90.0789,153.3573 -9.0205,37.88408 -9.404,38.65336 -18.4499,37.01603 -4.2054,-0.76113 -70.6785,-11.28078 -147.718,-23.37693 -106.6907,-16.75169 -140.5663,-21.19317 -142.146,-18.63701 -6.9484,11.24265 -9.6979,161.11133 -3.0774,167.73002 2.8167,2.81568 30.8758,-0.0815 145.7667,-15.05042 78.2535,-10.19552 145.04,-18.51022 148.4146,-18.4771 6.6066,0.0649 6.3443,-0.58325 13.0726,32.30844 12.7529,62.34238 42.0364,115.94185 88.6522,162.26585 14.0412,13.95335 25.5295,26.96084 25.5295,28.90555 0,1.94467 -41.4609,55.13347 -92.1355,118.19727 -50.6745,63.0638 -92.1355,115.761759 -92.1355,117.106549 0,3.04728 35.3135,28.5393 64.8555,46.817858 26.1684,16.1910718 76.3715,41.771171 81.9799,41.771171 2.2727,0 7.3835,-8.375834 12.1671,-19.93978321 4.5367,-10.96686679 29.5099,-71.92071579 55.4959,-135.45297479 25.9858,-63.53224 48.8286,-117.15527 50.7617,-119.16223 2.9107,-3.02208 7.4782,-2.25019 26.5826,4.49232 38.316,13.52271 65.4695,18.04921 108.3279,18.05831 40.6151,0.008 56.4305,-2.30579 95.6629,-13.99917 14.5348,-4.33216 25.1132,-6.19429 26.5621,-4.67571 1.3242,1.38799 25.4812,62.43927 53.6824,135.66948 28.2008,73.230249 52.5244,135.481192 54.0519,138.335458 3.3057,6.176413 5.1897,5.713374 37.9263,-9.321083 z M 2369.3798,-642.94189 c 0.615,-3.23666 2.4801,-18.92234 4.1442,-34.85709 3.3832,-32.39436 17.3796,-103.67489 22.0832,-112.46331 3.8085,-7.11642 3.0706,-7.14312 36.4537,1.31902 15.2431,3.86385 28.5798,6.02974 29.6377,4.81307 1.0575,-1.21678 5.948,-15.2075 10.8679,-31.09051 32.6131,-105.28932 94.2202,-211.93279 169.6409,-293.65299 l 23.5316,-25.4975 -22.7766,-24.949 -22.7767,-24.9489 24.2402,-23.0696 c 13.3321,-12.6881 38.0136,-33.6613 54.8476,-46.607 16.8337,-12.9456 34.2603,-26.361 38.7254,-29.8116 l 8.1184,-6.274 -17.3049,-28 c -9.5178,-15.4 -18.9615,-28 -20.9862,-28 -2.0247,0 -15.9175,9.1065 -30.8732,20.2369 -181.9803,135.4342 -311.6563,336.91824 -359.7428,558.95009 -8.0824,37.31922 -17.6471,101.37651 -17.7111,118.61512 l -0.044,11.59874 30.9411,0.77765 c 36.1397,0.90827 37.5101,0.659 38.9826,-7.08909 z m 1788.6634,6.49151 23.44,0 -1.8445,-26.23722 c -2.1562,-30.67643 -13.1682,-98.14558 -22.4334,-137.44947 -39.4228,-167.23259 -124.6026,-317.07523 -247.8383,-435.98203 -47.3601,-45.6963 -135.0806,-115.096 -140.9192,-111.4875 -2.393,1.479 -33.3275,54.71 -33.3275,57.3487 0,0.7241 9.5917,8.4807 21.315,17.237 39.5102,29.5108 102.4492,84.9933 102.4492,90.312 0,1.7651 -9.2823,12.4296 -20.6274,23.6989 -11.3451,11.2692 -20.6273,22.2195 -20.6273,24.3335 0,2.1141 7.1164,11.4533 15.8143,20.7536 47.7288,51.0352 95.4619,119.92484 127.8827,184.56404 14.9037,29.71438 40.4739,93.82384 48.815,122.38904 3.313,11.3451 6.9553,21.61277 8.0943,22.81707 1.1388,1.20441 15.3321,-1.13323 31.5405,-5.19462 19.9081,-4.98857 30.3742,-6.48007 32.2571,-4.59704 6.2283,6.2282 23.3829,89.05146 28.6329,138.24187 2.1159,19.82283 4.4417,22.82663 16.0297,20.70201 4.3488,-0.7974 18.4549,-1.44985 31.3469,-1.44985 z m -1078.873,-721.63842 c 61.0006,-12.2979 81.5652,-14.0735 162.2684,-14.0107 82.094,0.063 106.8157,2.4829 170.349,16.6679 16.5454,3.6939 30.961,5.7732 32.035,4.6205 1.0739,-1.1529 5.3376,-14.1482 9.4753,-28.8787 4.1378,-14.7305 9.0501,-28.0499 10.9168,-29.5989 4.287,-3.5581 65.9137,15.9481 116.5827,36.9008 32.6921,13.519 36.0577,14.391 39.5702,10.2525 6.2732,-7.3919 29.493,-49.3449 29.493,-53.2876 0,-2.0079 -14.4912,-10.0081 -32.3161,-17.8408 -87.1612,-38.301 -177.6234,-64.3044 -266.0932,-76.4883 -44.4742,-6.125 -137.793,-8.3448 -182.0423,-4.3306 -107.1375,9.72 -216.3725,39.1083 -313.9721,84.4705 l -25.7109,11.9499 14.3881,26.877 c 7.9134,14.7823 15.5439,28.3413 16.9567,30.1314 1.9126,2.423 8.3197,0.7665 25.0747,-6.4826 58.1443,-25.1565 124.3685,-46.6329 129.8272,-42.1028 1.8335,1.5219 6.7349,14.819 10.892,29.5495 8.9468,31.7015 8.8628,31.5325 14.7203,29.6931 2.5197,-0.7913 19.4331,-4.4327 37.5852,-8.0921 z M 2521.2235,461.06894 c 6.2527,-1.61356 12.8102,-4.67081 14.5721,-6.79389 4.3402,-5.22957 38.6919,-110.22693 38.6919,-118.26329 0,-4.78859 -8.131,-13.25534 -32.3161,-33.65028 -50.3038,-42.42042 -45.947,-39.7968 -57.8824,-34.85564 -5.6034,2.31978 -32.5832,15.04412 -59.9548,28.27631 l -49.767,24.05854 -1.7711,10.72282 c -4.055,24.54818 -6.9094,20.90307 63.1405,80.62456 42.2333,36.00614 66.5378,54.94135 69.4454,54.10354 2.4601,-0.70889 9.5891,-2.60908 15.8415,-4.22267 z m -66.3746,-73.05354 c -27.2281,-23.32356 -49.8633,-44.08559 -50.3,-46.13781 -0.5093,-2.39223 13.9232,-10.81754 40.2149,-23.47625 22.555,-10.8597 42.3631,-19.74489 44.0182,-19.74489 4.4261,0 52.7018,41.13747 52.7018,44.90904 0,1.76886 -6.291,22.09134 -13.9799,45.16108 -10.6635,31.99476 -15.0673,41.91534 -18.5646,41.82013 -2.5214,-0.0688 -26.8624,-19.20776 -54.0904,-42.5313 z m 1577.7682,32.16103 11.2515,-10.49517 -15.4835,-60.60612 c -16.2826,-63.73508 -17.7108,-72.42121 -11.9095,-72.42121 1.9656,0 20.6003,19.18344 41.4107,42.62989 20.8101,23.44643 39.3138,42.59074 41.119,42.54294 4.4301,-0.11747 18.4088,-12.63125 18.4088,-16.48012 0,-1.69361 -17.3271,-22.66096 -38.5045,-46.59414 -21.1774,-23.93319 -38.5045,-44.49521 -38.5045,-45.69344 0,-1.19821 2.7264,-5.08068 6.0588,-8.62775 l 6.0586,-6.44916 -9.7947,-9.79459 -9.7943,-9.79459 -27.8798,24.31745 c -15.3338,13.37458 -27.8854,25.86068 -27.8929,27.74684 0,1.8862 6.1754,27.33034 13.7388,56.54257 14.3841,55.5564 15.9212,65.16731 10.4228,65.16731 -1.8306,0 -27.0923,-9.90114 -56.1372,-22.00252 -29.0446,-12.10139 -55.0844,-21.9692 -57.8657,-21.92853 -2.7818,0.0407 -9.3094,3.59972 -14.5064,7.90897 -8.9622,7.43154 -9.1746,8.00294 -4.1255,11.09672 8.1583,4.99865 145.1047,63.10553 149.1339,63.27801 1.9494,0.0834 8.6074,-4.57106 14.7956,-10.34336 z M 2399.8426,273.53723 c 30.2535,-25.83121 55.4129,-48.05564 55.9099,-49.38761 1.5364,-4.11915 -10.6405,-19.00495 -15.5301,-18.98478 -2.5441,0.0115 -23.579,16.20187 -46.7437,35.98084 -38.3181,32.71683 -50.0176,39.8159 -50.0176,30.34933 0,-9.73102 -14.3167,-98.26802 -16.1938,-100.14507 -3.0028,-3.00293 -21.3657,0.38199 -24.508,4.51768 -1.4034,1.84721 0.7969,26.79445 5.3202,60.31557 l 7.7135,57.16538 11.5145,13.65519 c 6.3326,7.51037 12.8674,13.62014 14.5213,13.57726 1.654,-0.0429 27.7603,-21.21256 58.0138,-47.04379 z m 1757.4509,-16.01695 55.0063,-16.16868 11.6322,-13.28987 c 6.3978,-7.30941 11.6578,-14.20343 11.6888,-15.31999 0.031,-1.11659 -21.2433,-19.67375 -47.2768,-41.23814 -47.1115,-39.02437 -55.4059,-50.52817 -23.4126,-32.47236 11.7911,6.65453 15.5984,7.71351 17.8658,4.96942 1.5851,-1.91799 16.5871,-26.77315 33.338,-55.233677 l 30.4565,-51.746409 2.7675,-52.765522 c 3.3733,-64.312473 3.4027,-67.892263 0.5602,-67.892263 -1.2428,0 -7.68,9.4733 -14.3046,21.05173 -11.9134,20.82149 -12.0669,21.42399 -14.0297,55.0778518 l -1.9848,34.0260902 -22.6076,38.669888 c -12.4342,21.268425 -24.354,39.339971 -26.4884,40.159021 -2.1342,0.81901 -8.9222,-0.7843 -15.0841,-3.56291 l -11.2033,-5.052021 -6.512,8.138891 c -3.5817,4.47642 -6.5182,9.06715 -6.5258,10.20166 0,1.13451 -3.6166,2.06274 -8.02,2.06274 -10.2947,0 -24.1669,15.00018 -19.2977,20.86693 1.7114,2.0623 21.5856,18.91833 44.1653,37.45788 23.9981,19.70426 40.7321,35.37735 40.2799,37.72577 -0.5079,2.6373 -18.015,9.21624 -50.96,19.15 -38.7943,11.69759 -50.186,16.16671 -50.186,19.68858 0,9.324 6.1018,21.87725 10.5825,21.77139 2.4993,-0.0591 29.297,-7.38321 59.5504,-16.276 z M 2282.2864,161.82833 c 33.0605,-44.85911 53.7689,-77.071029 52.0873,-81.021223 -0.8317,-1.953032 -13.1043,-21.496734 -27.2719,-43.43049 -23.3449,-36.1405652 -26.5697,-39.9590642 -34.3949,-40.7275862 -4.7492,-0.466416 -33.4785,2.93709199 -63.8432,7.563359 -30.3645,4.626288 -56.4173,8.4114022 -57.8953,8.4114022 -3.5079,0 -16.531,25.74921 -16.531,32.684563 0,4.37089 77.5992,129.416035 88.3516,142.372065 1.9906,2.39842 9.2141,3.71378 20.3949,3.71378 l 17.3127,0 21.7898,-29.56587 z m -43.8353,-5.51034 c -2.2458,-2.64184 -19.3088,-28.83187 -37.9176,-58.200081 -28.404,-44.826516 -33.1777,-53.877052 -29.7417,-56.389406 7.0536,-5.157897 89.7062,-16.403322 94.0522,-12.796455 5.3095,4.406532 34.6122,51.102984 34.6122,55.157721 0,3.587738 -46.7207,68.565471 -53.1177,73.874551 -2.9382,2.43847 -4.7333,2.06376 -7.8874,-1.64633 z m 2028.262,27.0885 c 6.7554,-11.43618 5.945,-14.85356 -4.9076,-20.69825 -5.2944,-2.85119 -9.6262,-6.94416 -9.6262,-9.09545 0,-2.15134 10.8294,-22.40632 24.0652,-45.01115 l 24.0654,-41.099665 29.6855,-19.643142 c 26.8683,-17.778829 30.6182,-21.310093 39.5082,-37.207348 5.4026,-9.66033621 9.1258,-18.2608422 8.2747,-19.1122622 -1.5214,-1.521092 -88.4054,50.9894422 -98.3007,59.4103102 -4.8135,4.096529 -65.6483,105.638867 -66.6838,111.305717 -0.513,2.80737 41.3452,29.10938 46.3559,29.12823 1.5648,0.006 4.9682,-3.58375 7.5634,-7.97699 z M 2130.9993,-1.4269582 c 3.4037,-1.273229 6.1884,-3.822491 6.1884,-5.665015 0,-5.4103858 -80.1784,-209.5814668 -83.8718,-213.5767368 -2.7808,-3.0077 -5.228,-2.73902 -14.0661,1.54416 -6.2777,3.0424 -10.3538,6.82056 -9.8626,9.14192 0.4601,2.17603 18.234,48.51153 39.4978,102.96777 21.2635,54.456209 39.7618,101.8790778 41.1075,105.3841568 2.5229,6.57135 3.9486,6.585159 21.0068,0.203796 z m 114.1382,-41.5059028 c 4.1598,-1.50593 7.5633,-4.26061 7.5633,-6.1215 0,-3.49719 -81.7503,-213.510819 -83.9791,-215.739789 -1.7257,-1.72547 -23.2147,5.55124 -25.0199,8.4723 -1.2286,1.98776 74.3228,199.723859 82.0867,214.840249 1.6914,3.29336 4.1679,4.3817 7.1834,3.15659 2.5311,-1.0284 8.0058,-3.1019 12.1656,-4.60785 z m -72.0592,-17.3973 c 4.4628,-2.30785 8.1143,-4.90282 8.1143,-5.76659 0,-3.03694 -52.9619,-137.207219 -55.073,-139.518679 -2.5922,-2.83801 -22.1566,3.84013 -23.8005,8.12414 -1.0448,2.72319 44.3903,122.814399 51.4716,136.045909 3.428,6.40487 8.4922,6.69771 19.2876,1.11522 z m 2232.9855,-21.45683 c 1.8546,-6.62365 2.9526,-14.46529 2.4402,-17.42583 -1.3444,-7.764919 -102.1855,-160.502839 -105.3185,-159.518969 -1.4435,0.45339 -13.4448,33.45778 -26.6694,73.34312 -22.9917,69.34277 -23.8576,72.83563 -19.7712,79.75344 9.102,15.408349 14.2975,20.714539 17.3275,17.696009 1.6158,-1.60977 10.1435,-24.506149 18.9506,-50.880809 10.2671,-30.74763 17.4716,-48.2378 20.0789,-48.74508 2.6294,-0.51154 18.3682,20.66792 44.5366,59.93131 22.2586,33.397329 41.5018,60.085109 42.7619,59.306139 1.2604,-0.77893 3.8089,-6.83563 5.6634,-13.45933 z m -2361.0117,-485.905489 0,-23.37768 -22.0025,0 -22.0024,0 -0.817,20.36999 c -0.449,11.20345 -0.1595,22.08524 0.6461,24.18167 1.1113,2.89651 6.5902,3.61867 22.8193,3.00771 l 21.3565,-0.80403 0,-23.37766 z m 2431.2779,0 0,-23.37768 -21.7639,-0.81134 c -15.5538,-0.57985 -22.4083,0.2049 -24.0231,2.75033 -2.6488,4.17554 -3.1213,35.46366 -0.6336,41.94692 1.419,3.69797 5.5137,4.32121 24.0652,3.66285 l 22.3554,-0.79342 0,-23.37766 z m -57.0114,-124.13443 37.5094,-8.62122 3.8982,5.87096 c 4.0841,6.151 15.3659,7.95558 18.458,2.95237 0.9921,-1.6052 -0.927,-13.97037 -4.2648,-27.47833 -6.8912,-27.88938 -0.8021,-23.50618 -49.4702,-35.61075 -42.933,-10.6781 -44.3794,-11.17811 -43.4899,-15.03501 0.473,-2.05096 15.0929,-15.34009 32.4886,-29.53156 24.9622,-20.36408 31.8187,-27.44237 32.5312,-33.58286 1.9446,-16.76208 -3.733,-14.15635 -50.3827,23.12266 -44.6011,35.64213 -45.6397,36.70897 -43.8925,45.07883 0.984,4.71509 3.2124,10.03762 4.9511,11.82786 1.739,1.79036 20.4805,7.19539 41.6477,12.01137 45.3751,10.32366 50.8994,12.20795 50.8994,17.36111 0,2.72802 -11.2637,6.52933 -37.817,12.76241 -20.7992,4.88248 -39.1907,9.97963 -40.8699,11.32702 -4.9456,3.96818 -1.2248,16.16637 4.9314,16.16637 2.9494,0 22.2417,-3.87955 42.872,-8.62123 z m -2320.7214,-88.98911 c 27.6873,-8.30545 51.8943,-16.38989 53.7924,-17.96545 4.7054,-3.90501 6.5578,-18.58049 2.9017,-22.98748 -1.6373,-1.97354 -18.6626,-14.40178 -37.8336,-27.61818 -50.207,-34.6123 -49.7054,-38.02446 4.3014,-29.24643 44.7805,7.2783 44.7219,7.2808 46.5248,-1.90715 0.8164,-4.15989 0.6513,-8.42016 -0.3668,-9.46725 -1.0181,-1.04709 -19.1781,-4.62166 -40.3556,-7.94332 -21.1775,-3.32176 -40.0514,-7.25775 -41.9423,-8.74651 -1.8908,-1.48906 -3.4379,-5.00731 -3.4379,-7.8187 0,-5.6008 -12.5359,-10.3668 -16.446,-6.2525 -2.2701,2.38877 -8.3068,36.88283 -8.3068,47.46658 0,3.86875 9.6291,12.41349 32.5076,28.84701 17.8793,12.84253 34.0486,25.20656 35.9318,27.47561 4.5885,5.529 1.8834,6.81987 -43.5735,20.79345 -20.3592,6.25832 -37.9766,12.8899 -39.1498,14.73688 -3.4645,5.45232 -2.5188,15.73432 1.4467,15.73432 2.0155,0 26.3181,-6.79534 54.0059,-15.10088 z m 2296.5985,-56.22817 c 0,-9.38808 -6.8508,-16.94985 -23.8645,-26.34176 -19.6135,-10.82701 -28.3915,-17.25492 -28.3915,-20.79064 0,-1.15266 19.2833,-8.52271 42.8521,-16.37802 42.5293,-14.17458 42.8386,-14.33686 41.0601,-21.54313 -0.9854,-3.99355 -2.6447,-8.13942 -3.687,-9.21312 -1.0423,-1.0736 -20.4473,4.082 -43.1229,11.45687 -24.6189,8.00713 -42.2616,12.41334 -43.7942,10.93731 -1.5705,-1.51314 1.8057,-11.6115 8.7061,-26.03828 9.5037,-19.8699 10.8904,-24.8971 8.8391,-32.0488 -2.9038,-10.1251 -4.1081,-11.5794 -7.733,-9.339 -4.6219,2.8564 -30.627,54.27116 -30.5717,60.44336 0.027,3.18608 4.0509,16.75618 8.9386,30.15576 l 8.8868,24.36303 28.8782,13.1583 c 31.7839,14.48231 33.0038,14.89535 33.0038,11.17812 z M 2175.6106,-965.55846 c 26.1946,-30.4073 27.3928,-32.337 23.0558,-37.12934 -2.5162,-2.7802 -6.1306,-5.0549 -8.0321,-5.0549 -4.6047,0 -56.1969,59.08614 -56.1969,64.35974 0,3.7795 6.8868,9.6144 11.5842,9.8151 1.077,0.045 14.3922,-14.3498 29.589,-31.9906 z m -31.5472,-41.66224 c 75.9744,-31.875 81.667,-35.5024 85.4575,-54.4547 l 1.653,-8.265 -47.9345,-18.4068 c -26.3642,-10.1238 -49.3439,-18.4068 -51.0664,-18.4068 -4.142,0 -7.408,13.4303 -4.0762,16.7619 1.4339,1.4343 17.8919,8.46 36.5726,15.613 18.6805,7.1529 34.4665,14.5262 35.0798,16.385 0.6435,1.9501 -5.0811,6.1285 -13.5337,9.878 -92.2738,40.932 -101.2839,46.3665 -101.2839,61.08994 0,4.4597 1.98,3.7836 59.1318,-20.19454 z m 2245.6317,-24.9547 c 0,-3.337 -37.8924,-88.3071 -42.5938,-95.5126 -3.4685,-5.3156 -19.8019,-11.0977 -22.8214,-8.0785 -0.7035,0.7035 5.2196,16.1215 13.1622,34.2621 7.9427,18.1406 13.7397,34.8114 12.8823,37.0462 -1.3058,3.4026 -9.4164,2.0145 -49.8872,-8.5386 -26.5801,-6.931 -49.1492,-11.7801 -50.1539,-10.7756 -1.0043,1.0045 0.055,5.7978 2.3535,10.6517 4.088,8.632 5.5306,9.1979 65.8059,25.8144 64.0251,17.6503 71.2524,19.185 71.2524,15.1309 z m -2181.0962,-71.6475 c 1.5661,-2.9259 2.8471,-6.6276 2.8471,-8.2259 0,-3.2697 -52.653,-30.4593 -58.985,-30.4593 -5.902,0 -11.1589,10.715 -7.1996,14.6745 2.9746,2.9746 54.5246,28.5968 58.5244,29.0887 1.0815,0.1332 3.2474,-2.1522 4.8131,-5.078 z m 15.0121,-33.7172 c 3.6829,-5.2581 3.717,-6.5952 0.2668,-10.409 -6.5695,-7.2591 -22.9718,-12.1162 -27.6905,-8.2 -7.111,5.9016 -4.4213,12.3417 7.6965,18.4292 14.7454,7.4071 14.6665,7.4064 19.7283,0.1798 z m 2043.128,-18.6304 c 31.2764,-21.9128 32.6269,-22.554 37.7464,-17.9208 5.0147,4.538 5.7075,4.5442 12.4715,0.1123 8.4984,-5.5684 8.1878,-6.6438 -8.6931,-30.1095 -15.2739,-21.2319 -11.9725,-20.5787 -64.4803,-12.7585 -34.7956,5.1821 -41.1097,5.2292 -41.1097,0.3066 0,-1.2096 9.4037,-19.1139 20.8979,-39.7869 20.3411,-36.5864 20.7789,-37.769 16.4384,-44.3937 -2.4527,-3.7434 -5.614,-6.8062 -7.0253,-6.8062 -2.6487,0 -11.5375,14.6646 -41.4169,68.3278 l -17.3709,31.1985 5.0454,9.3686 c 6.0535,11.2409 6.781,11.2947 51.8668,3.8339 18.3956,-3.0441 36.599,-6.0569 40.4519,-6.6954 8.3599,-1.3851 15.091,2.1277 12.4048,6.4738 -1.057,1.7103 -16.0671,13.0785 -33.3561,25.2628 -17.2889,12.1842 -31.4341,23.3809 -31.4341,24.8818 0,6.3348 6.2343,13.8161 10.5491,12.6586 2.5176,-0.6754 19.174,-11.4546 37.0142,-23.9539 z m -1992.6311,1.4948 c 2.2712,-4.9851 2.209,-7.3343 -0.2475,-9.3124 -6.1585,-4.9614 -54.0415,-28.0256 -58.1829,-28.0256 -3.6582,0 -9.2291,12.5591 -6.6257,14.9378 2.7265,2.4913 56.414,28.8043 59.0205,28.9266 1.648,0.077 4.3634,-2.8595 6.0339,-6.5264 z m 49.0506,-79.2804 c 22.7098,-29.1191 42.2441,-54.5449 43.4097,-56.5018 1.1662,-1.9581 0.5231,-5.482 -1.4302,-7.8353 -5.1202,-6.1695 -76.1881,-61.4897 -78.9937,-61.4897 -2.016,0 -33.9961,39.0707 -39.8285,48.6598 -2.3992,3.9442 8.8086,50.3515 12.16,50.3515 1.292,0 4.3316,-3.0259 6.7549,-6.724 3.4058,-5.1981 3.9722,-10.194 2.4953,-22.0132 -1.7239,-13.7977 -1.2124,-16.2042 5.2423,-24.6667 13.9038,-18.2287 15.1478,-18.9538 23.3597,-13.6168 3.9894,2.593 15.6184,11.3687 25.8422,19.5019 16.3443,13.0021 18.2348,15.448 15.6595,20.2604 -6.2312,11.6429 -61.1156,79.5143 -64.2998,79.5143 -1.8495,0 -17.9869,-11.3675 -35.8615,-25.2614 l -32.4988,-25.2614 -5.2031,6.4256 c -2.8617,3.5339 -4.8446,7.501 -4.4065,8.8152 1.436,4.3083 77.6607,62.525 82.038,62.6567 2.3645,0.072 22.6963,-23.498 45.5605,-52.8151 z m 1856.1964,-63.2239 c 20.3887,-16.9992 37.0704,-32.3342 37.0704,-34.0776 0,-1.7434 -8.834,-13.8255 -19.6313,-26.8488 l -19.6311,-23.6792 -22.311,0.042 c -27.952,0.053 -31.6487,1.9991 -22.5156,11.8541 5.6109,6.0541 9.2125,7.356 20.3502,7.356 12.5048,0 14.3945,0.9351 24.8841,12.315 6.2434,6.7731 11.3516,13.9449 11.3516,15.9372 0,5.133 -44.0571,40.899 -49.1677,39.9147 -4.3097,-0.8298 -69.0958,-75.399 -69.0958,-79.5295 0,-1.9237 11.3092,-11.9355 57.2485,-50.6803 6.0562,-5.1078 6.342,-6.2601 2.9228,-11.777 -2.0844,-3.3633 -5.9146,-5.7661 -8.5113,-5.3397 -7.3307,1.2043 -79.5265,62.923 -78.6056,67.1985 1.7134,7.957 88.2597,108.2221 93.4144,108.2221 2.8362,0 21.8385,-13.9085 42.2274,-30.9077 z m -1790.5136,-18.598 c 4.4565,-4.924 4.545,-6.005 0.8447,-10.3137 -9.0239,-10.5075 -8.5225,-11.6117 17.16,-37.8007 23.9717,-24.4442 26.7589,-26.4024 50.8887,-35.752 19.7482,-7.6516 27.1691,-12.0427 32.7761,-19.3937 3.9864,-5.2264 6.4466,-9.5026 5.4668,-9.5026 -0.9797,0 -18.0602,5.0871 -37.9568,11.3049 l -36.1756,11.305 -34.2668,34.0842 -34.2665,34.0842 13.5358,13.7426 c 7.4448,7.5585 14.3189,13.7425 15.2757,13.7425 0.9569,0 3.98,-2.4753 6.7179,-5.5007 z m -18.7087,-74.2585 30.3194,-31.6285 11.2604,-38.3991 c 6.1929,-21.1195 10.6743,-38.9848 9.9584,-39.7007 -0.7159,-0.7161 -6.232,3.5125 -12.258,9.3967 -8.7518,8.5456 -12.3736,15.3446 -17.9991,33.7886 -6.563,21.5172 -8.5653,24.7111 -29.3832,46.8794 -12.2875,13.0839 -24.0592,24.2071 -26.1601,24.7179 -2.1009,0.5106 -6.1107,-1.1449 -8.9112,-3.6789 -6.0253,-5.4532 -13.3623,-4.6159 -17.5286,2 -2.4683,3.9195 -0.8384,6.9446 9.3173,17.2925 6.7699,6.898 14.2793,12.1861 16.6871,11.7513 2.4079,-0.4346 18.0217,-15.0234 34.6976,-32.4192 z m 1659.4519,-2.847 c 2.9262,-1.5659 5.276,-4.3505 5.2221,-6.1881 -0.055,-1.8376 -8.7045,-10.1483 -19.2238,-18.4679 -10.5194,-8.3196 -19.139,-17.0951 -19.1546,-19.5009 -0.027,-2.9269 8.8439,-8.1606 26.7874,-15.8189 14.7487,-6.2946 27.9364,-11.4427 29.3063,-11.4402 1.3701,0 6.8212,3.3075 12.1141,7.3446 l 9.623,7.34 7.872,-8.81 c 9.2361,-10.337 8.0335,-14.5797 -7.489,-26.4192 l -10.0315,-7.6514 -53.8183,23.0458 c -29.6,12.6754 -54.292,24.4678 -54.8712,26.2052 -1.2372,3.7116 58.7078,53.208 64.4405,53.208 2.1469,0 6.2973,-1.2812 9.223,-2.847 z m -1481.2378,-69.3487 c 7.0003,-6.0421 7.2946,-7.6817 12.4652,-69.4453 6.3018,-75.2783 6.1142,-70.1331 2.5546,-70.1331 -3.3276,0 -85.5165,57.2529 -88.5358,61.6737 -2.6496,3.8799 -2.6971,20.8358 -0.057,20.8358 1.1259,0 15.9859,-9.5212 33.0231,-21.1584 19.9436,-13.6225 31.9234,-20.2112 33.6355,-18.499 1.4626,1.4625 1.8912,7.3928 0.9522,13.1783 -1.4283,8.8019 -4.5595,12.7609 -19.1801,24.2506 -16.2212,12.7477 -17.4734,14.5139 -17.4734,24.6444 0,11.8665 0.3108,11.8776 15.6309,0.556 16.0894,-11.8902 18.1368,-9.7154 15.9193,16.9077 -2.1306,25.5799 -0.8888,27.5086 11.0668,17.1893 z m 1300.7494,-56.3813 c -2.7059,-4.1599 -12.9326,-19.6216 -22.7253,-34.3595 l -17.8049,-26.7961 -39.533,-22.022 c -21.7433,-12.1121 -40.5714,-22.022 -41.8403,-22.022 -1.2691,0 -6.2351,7.3695 -11.0359,16.3766 l -8.7285,16.3766 7.1883,4.7099 c 7.0372,4.611 7.319,4.546 13.4064,-3.088 7.3414,-9.2072 6.4085,-9.4488 43.1761,11.1872 24.4786,13.739 28.4369,17.1214 41.5564,35.5099 13.4173,18.8063 28.441,31.475 37.5069,31.6275 2.8814,0.048 2.6103,-1.6952 -1.1662,-7.5001 z m -1179.41,-25.1822 c 8.26,-5.037 9.1344,-7.5182 24.6598,-69.9868 8.8528,-35.6206 15.3358,-65.5249 14.4065,-66.4543 -0.9291,-0.9291 -23.7836,8.6419 -50.7876,21.2692 -48.213,22.5445 -49.1439,23.1425 -51.6408,33.1606 -1.3985,5.6112 -1.8838,10.8606 -1.079,11.6656 0.8051,0.8051 16.1821,-5.3566 34.1714,-13.6925 17.9891,-8.3358 34.2544,-15.1732 36.1452,-15.1938 4.9822,-0.055 4.5636,2.8939 -7.5634,53.2562 -6.0507,25.1284 -11.0013,46.9324 -11.0013,48.4531 0,4.007 3.0233,3.4168 12.6892,-2.4773 z m 164.8563,-70.4536 c 27.1456,-9.8667 52.751,-19.2958 56.9008,-20.9535 5.4626,-2.1822 8.3553,-6.0235 10.4808,-13.9167 3.725,-13.8328 2.4318,-15.8651 -34.1475,-53.6597 l -28.0731,-29.0061 -32.1922,11.7192 c -17.7057,6.4457 -34.0389,13.1029 -36.2959,14.7942 -3.2069,2.403 -4.5037,13.0275 -5.9349,48.626 l -1.8317,45.5513 9.344,7.3619 c 5.1389,4.049 10.0301,7.3754 10.8689,7.3922 0.8391,0.016 23.7355,-8.0421 50.8808,-17.9088 z m -49.4482,-9.2281 c -0.8206,-1.328 -0.697,-16.3177 0.2753,-33.3103 1.7295,-30.2214 1.939,-31 9.6042,-35.6614 4.31,-2.6211 15.3422,-7.0382 24.5162,-9.8158 l 16.68,-5.0503 19.7386,21.5251 c 22.7612,24.8215 25.351,28.5864 21.9819,31.9554 -2.8335,2.8335 -83.1189,32.6945 -88.0282,32.741 -1.8018,0.018 -3.9472,-1.0556 -4.768,-2.3837 z m 922.6547,-22.7177 c 16.7019,-48.1223 17.1287,-50.0204 12.0819,-53.7107 -10.1695,-7.4362 -13.2085,-3.4032 -26.2503,34.8401 -9.0216,26.4534 -13.8988,37.1271 -16.9648,37.1271 -2.3664,0 -14.3413,-12.6859 -26.6105,-28.1907 -12.2694,-15.5048 -23.3174,-28.1908 -24.5515,-28.1908 -1.2341,0 -4.4948,2.4874 -7.2459,5.5275 -6.3337,6.9985 -5.395,8.7996 24.2473,46.5306 21.3756,27.2083 30.9069,34.7989 44.8821,35.7428 1.7037,0.1152 10.889,-22.239 20.4117,-49.6759 z m 195.1406,44.4309 c 0,-6.8825 -26.4237,-15.9172 -52.2559,-17.8673 -25.0043,-1.8877 -27.3407,-2.64 -54.3188,-17.4906 -29.0589,-15.9959 -31.6188,-19.1521 -25.2232,-31.1023 2.3722,-4.4322 1.958,-6.3105 -2.0626,-9.3577 -2.7669,-2.0969 -6.4866,-3.852 -8.2663,-3.9001 -4.172,-0.1124 -21.0673,29.3009 -19.3579,33.7006 0.714,1.8376 17.8473,12.6143 38.0739,23.9482 l 36.7758,20.6072 31.6287,1.5675 c 17.3957,0.8621 36.8886,1.7995 43.3174,2.0829 6.4289,0.2835 11.6889,-0.7012 11.6889,-2.1884 z m -936.6381,-49.2802 c 3.9451,-1.5441 9.0472,-13.1985 19.4809,-44.4993 8.9051,-26.7133 15.6289,-42.6972 18.169,-43.1904 2.3011,-0.4468 14.7576,11.9525 29.0116,28.8784 32.1583,38.1866 34.2278,39.9953 43.1837,37.7476 3.9595,-0.9939 7.1991,-2.9152 7.1991,-4.2697 0,-1.3547 -16.2458,-22.2605 -36.1024,-46.4573 -32.8617,-40.0456 -36.8877,-43.9942 -44.8542,-43.9942 -4.8139,0 -10.666,1.5468 -13.0052,3.4378 -2.3391,1.8909 -10.6446,23.4914 -18.4561,48.0014 -7.8121,24.5098 -15.6201,45.4386 -17.3509,46.5085 -5.7125,3.5306 -15.1585,-11.539 -18.5601,-29.6103 -3.1102,-16.5248 -2.0423,-29.1105 4.2237,-49.7729 1.0996,-3.6258 -0.1123,-4.8026 -4.9139,-4.771 -9.9325,0.066 -12.3582,2.8985 -17.4299,20.357 -7.6009,26.1635 -1.5438,53.9851 16.3664,75.1744 6.0801,7.1928 9.5218,8.9007 17.6244,8.7451 5.538,-0.1065 12.4743,-1.1346 15.4139,-2.2851 z m 520.0095,-32.588 c 9.2187,-52.8473 10.4562,-56.9822 17.3468,-57.9673 6.6053,-0.9443 13.4259,-13.3901 9.493,-17.323 -3.0034,-3.0035 -49.2907,-10.2427 -52.3256,-8.1836 -1.3396,0.9085 -13.892,16.8853 -27.8947,35.504 -14.0027,18.6185 -26.9138,33.3733 -28.6913,32.7885 -1.7778,-0.5848 -8.6173,-19.531 -15.1997,-42.1029 -6.582,-22.5716 -13.3889,-41.9487 -15.1266,-43.06 -5.6041,-3.5842 -15.5358,-2.3165 -15.5358,1.983 0,7.6998 27.9996,104.5452 31.1915,107.8856 1.7533,1.8347 7.4384,3.6912 12.6339,4.1253 9.1389,0.7639 10.1942,-0.2409 32.4021,-30.8389 26.8122,-36.9421 35.3865,-46.2819 39.0445,-42.53 1.6163,1.6576 0.031,16.9554 -4.2365,40.8459 -3.7518,21.0075 -6.1743,39.8817 -5.3833,41.9424 0.7908,2.0605 5.0749,3.7466 9.5208,3.7466 8.071,0 8.0898,-0.038 12.7609,-26.8156 z m -212.5435,-46.8766 c 23.8453,-27.673 43.355,-51.4975 43.355,-52.9435 0,-1.524 -13.6982,-2.6293 -32.5888,-2.6293 -17.9238,0 -41.9566,-0.7917 -53.4059,-1.7595 -20.2923,-1.7153 -20.998,-1.5646 -27.9882,5.9778 -3.944,4.2557 -6.7299,9.0698 -6.1906,10.6983 0.6033,1.8219 15.0901,3.4896 37.6641,4.3359 23.2175,0.8702 37.0538,2.492 37.6916,4.4177 0.5543,1.6736 -2.6269,6.9335 -7.069,11.6888 -7.7584,8.3057 -8.946,8.6463 -30.1513,8.6463 -20.6507,0 -22.4474,0.4741 -27.8564,7.3505 -7.2144,9.1717 -4.0404,11.8003 14.3209,11.8594 16.64,0.053 16.7355,3.2017 0.6876,22.6948 -15.2762,18.5559 -15.6186,21.9537 -2.1001,20.8309 9.5882,-0.7966 13.1793,-4.2228 53.6311,-51.1681 z"
       id="path3007"
       inkscape:connector-curvature="0" />
  </g>
  <g
     style="display:none"
     transform="translate(0,2187.6403)"
     id="g4085"
     inkscape:groupmode="layer"
     inkscape:label="logo simple">
    <path
       inkscape:connector-curvature="0"
       id="path4087"
       d="M 3168.4893,727.18179 C 2901.2318,714.76194 2620.7121,600.75522 2397.7503,413.94399 2347.2666,371.64568 2268.2904,291.3227 2229.5344,242.85967 2085.7234,63.028581 1990.0288,-169.68499 1956.6537,-420.74068 c -7.8516,-59.06252 -10.7066,-199.65346 -5.2726,-259.64197 16.6353,-183.64389 73.7345,-360.61835 171.2687,-530.83225 161.2364,-281.385 392.3873,-474.0062 691.7894,-576.4776 416.8653,-142.6737 819.3307,-85.3138 1182.3423,168.5084 267.521,187.0543 445.671,466.5577 512.7865,804.52246 18.2538,91.9177 23.374,138.85331 25.319,232.09582 1.8817,90.20601 -1.3252,142.56025 -13.3424,217.8394 -48.8015,305.705381 -228.8991,616.08455 -470.075,810.12611 -237.293,190.91731 -567.9048,296.42412 -882.9803,281.7821 z m 213.314,-95.6466 c 113.9901,-15.79981 220.9528,-45.99281 332.2106,-93.77507 22.1182,-9.4992 42.3834,-19.346 45.0337,-21.88182 4.0677,-3.89177 2.2196,-9.43418 -11.854,-35.55098 -25.5868,-47.48266 -18.6162,-45.4535 -75.0699,-21.85404 -55.6925,23.28139 -137.7136,50.29785 -144.632,47.63959 -2.5677,-0.98674 -9.0375,-17.30512 -14.3761,-36.26305 -5.3389,-18.95791 -11.1043,-36.20708 -12.8118,-38.33146 -2.2273,-2.77092 -13.0759,-1.61253 -38.3866,4.09892 -139.901,31.56858 -296.2084,31.40091 -438.2389,-0.47017 -20.9849,-4.70892 -38.8706,-7.84452 -39.7457,-6.96806 -0.8753,0.87652 -6.0741,17.69687 -11.5531,37.37862 -5.4789,19.68172 -11.8148,36.93184 -14.0801,38.33361 -7.842,4.85308 -109.1276,-27.98892 -162.5841,-52.71829 -16.6942,-7.72272 -31.6179,-14.04138 -33.1631,-14.04138 -3.4622,0 -41.6724,67.03234 -41.6724,73.10576 0,5.04823 44.0101,26.1198 99.6629,47.71769 106.8981,41.48503 213.8687,67.34092 325.2166,78.60802 45.6824,4.62255 188.3434,1.58375 236.044,-5.02789 z M 2591.4927,389.53117 c 10.5782,-18.42318 19.6983,-34.76687 20.2665,-36.31922 0.5682,-1.5524 -16.7418,-16.25205 -38.4664,-32.66586 -52.4879,-39.65634 -110.8681,-92.76432 -113.4952,-103.24573 -1.7725,-7.07023 2.2636,-12.84066 24.9909,-35.73209 l 27.1047,-27.30025 -34.0164,-38.02106 C 2377.7467,4.3291513 2302.5306,-127.6597 2261.1588,-264.04765 c -5.1115,-16.85107 -10.3787,-30.60671 -11.7047,-30.56813 -1.3262,0.0385 -17.3607,3.94625 -35.6322,8.68362 -44.5353,11.54701 -44.4364,11.55929 -49.1902,-6.11794 -7.6154,-28.31838 -20.5138,-99.50567 -25.8512,-142.67564 -3.1305,-25.32018 -7.1855,-44.58137 -9.7459,-46.29603 -2.4116,-1.61494 -8.9093,-2.10567 -14.4387,-1.09046 -5.5296,1.01514 -23.4592,1.84574 -39.8435,1.84574 l -29.7897,0 2.3481,28.88753 c 10.1702,125.12511 47.1466,271.04903 97.6544,385.384611 55.7617,126.22871 127.5364,229.719379 231.2547,333.441519 66.4463,66.4488 175.5294,155.3681 190.7941,155.52638 2.9847,0.0315 13.5359,-14.38452 24.4787,-33.44238 z m 1362.3566,10.39297 c 51.6185,-38.41231 88.1651,-70.26912 137.8797,-120.18577 151.0341,-151.64889 262.1019,-348.378299 314.8919,-557.7532 12.71,-50.41102 26.8873,-131.82835 29.9878,-172.2153 l 2.2195,-28.9122 -38.8763,-2.22724 c -21.3816,-1.22497 -41.0004,-1.41073 -43.5981,-0.41275 -3.1833,1.22312 -6.1458,14.60284 -9.0901,41.05722 -4.8601,43.66256 -18.4228,117.61405 -26.6713,145.42695 -6.3379,21.36937 -5.9378,21.29229 -48.8398,9.40948 -17.2961,-4.79064 -33.237,-8.72984 -35.4237,-8.7538 -2.1869,-0.0245 -11.9885,23.57544 -21.7817,52.44296 -31.885,93.98877 -74.3103,178.272551 -131.5134,261.268721 -26.3728,38.26391 -74.5386,97.998199 -94.134,116.743259 -6.9379,6.63674 -12.6146,14.55459 -12.6146,17.5952 0,3.04065 11.8021,17.26719 26.2271,31.61456 14.425,14.34735 26.2272,27.94101 26.2272,30.20809 0,6.99786 -65.9728,67.07788 -110.154,100.31496 -23.08,17.36279 -42.4618,33.64761 -43.0709,36.18858 -1.5093,6.29795 37.6261,71.39169 42.9219,71.39169 2.3294,0 18.2647,-10.44061 35.4128,-23.20141 z M 3584.283,173.88778 c 38.371,-17.6452 113.2263,-62.2726 132.8764,-79.218689 l 15.1302,-13.04807 -110.8721,-145.00105 c -60.9797,-79.750561 -113.1855,-148.535531 -116.0124,-152.855491 -4.8373,-7.39238 -4.3555,-8.53126 8.1908,-19.35721 50.1267,-43.25284 89.2867,-93.6 114.7752,-147.56417 15.3335,-32.46349 33.1886,-87.51312 33.1886,-102.32483 0,-18.53135 -1.522,-18.62839 195.8422,12.48394 117.6775,18.55056 186.4534,27.98117 188.5187,25.84979 10.9685,-11.31831 13.7742,-207.06014 3.1124,-217.12663 -3.6183,-3.41638 -42.9226,0.78673 -190.7745,20.40126 -102.4193,13.58731 -187.1661,23.75409 -188.3259,22.5928 -1.1597,-1.16126 -4.2957,-13.63344 -6.9688,-27.71587 -11.1889,-58.93947 -36.76,-119.6729 -70.2682,-166.8913 -9.0879,-12.8065 -31.1338,-38.0273 -48.9907,-56.0461 -19.1379,-19.3118 -31.471,-34.4057 -30.0411,-36.7659 1.3345,-2.2024 53.1007,-66.4138 115.0362,-142.69196 61.9347,-76.278 114.7291,-142.1727 117.3205,-146.4325 4.2837,-7.0423 3.7594,-8.5371 -5.7794,-16.4736 -37.3555,-31.0794 -159.6731,-102.8681 -175.1652,-102.8045 -5.5107,0.022 -19.1911,30.3358 -78.364,173.6388 -39.4281,95.4861 -73.7909,174.47916 -76.3622,175.53986 -2.5711,1.0607 -20.6677,-3.0419 -40.2149,-9.1171 -52.2184,-16.2291 -72.1722,-19.279 -126.4611,-19.3299 -51.3341,-0.048 -71.303,2.881 -121.2622,17.7857 -16.6881,4.9786 -32.5392,8.2078 -35.2241,7.176 -2.6854,-1.0316 -32.6597,-74.11996 -66.6098,-162.41816 -33.9503,-88.2986 -64.421,-167.3775 -67.7126,-175.7314 -5.5787,-14.1568 -6.6981,-15.0462 -16.4734,-13.0885 -28.6485,5.7374 -184.0393,93.8924 -184.0393,104.4078 0,1.7294 52.0391,70.7727 115.6425,153.4296 l 115.6422,150.28526 -39.8593,39.4268 c -62.1022,61.4283 -96.7598,120.5093 -114.5329,195.24443 -11.4693,48.23153 -11.957,49.21092 -23.4586,47.12637 -5.347,-0.96901 -89.8658,-14.36194 -187.8194,-29.76196 -135.6544,-21.32716 -178.7263,-26.98176 -180.7348,-23.72743 -8.8347,14.31341 -12.3307,205.11639 -3.9129,213.54286 3.5814,3.58474 39.2578,-0.10375 185.3385,-19.1612 99.4972,-12.98027 184.4144,-23.566 188.7051,-23.52384 8.4001,0.0826 8.0666,-0.74255 16.6215,41.133 16.215,79.37022 53.4481,147.60955 112.7189,206.58623 17.853,17.7645 32.46,34.32478 32.46,36.80066 0,2.47582 -52.7164,70.19231 -117.1478,150.481011 -64.4312,80.28869026 -117.1478,147.38028 -117.1478,149.09238 0,3.8796 44.9002,36.334359 82.462,59.605429 33.2725,20.61341 97.1044,53.18032 104.2353,53.18032 2.8897,0 9.3879,-10.66357 15.4701,-25.38603 5.7683,-13.9623 37.5211,-91.564739 70.5616,-172.449849 33.0402,-80.88508 62.0842,-149.154411 64.5421,-151.709531 3.7009,-3.84752 9.5083,-2.8648 33.7991,5.71932 48.7177,17.21623 83.2427,22.97908 137.736,22.99066 51.641,0.0102 71.7498,-2.93558 121.6328,-17.82283 18.4806,-5.51542 31.9307,-7.88616 33.773,-5.9528 1.6836,1.76709 32.3986,79.493581 68.2557,172.7254813 35.8565,93.2319587 66.7833,172.4857687 68.7255,176.1196287 4.2031,7.86341 6.5986,7.2739 48.2223,-11.86699 z M 2134.8744,-663.60709 c 0.782,-4.1207 3.1534,-24.09068 5.2692,-44.37776 4.3017,-41.24229 22.0977,-131.99209 28.0782,-143.18099 4.8424,-9.0601 3.9042,-9.094 46.3499,1.6793 19.3812,4.9192 36.3385,7.6767 37.6836,6.1277 1.3445,-1.5491 7.5627,-19.3611 13.8182,-39.5823 41.4667,-134.04746 119.7985,-269.81886 215.6938,-373.85976 l 29.9198,-32.4618 -28.9598,-31.7633 -28.96,-31.7634 30.8208,-29.3707 c 16.9514,-16.1536 48.3333,-42.8553 69.7372,-59.3369 21.4036,-16.4815 43.5611,-33.5611 49.2383,-37.9542 l 10.3224,-7.9877 -22.0027,-35.6477 c -12.1017,-19.6063 -24.1091,-35.6478 -26.6834,-35.6478 -2.5744,0 -20.2387,11.5938 -39.2545,25.7643 -231.383,172.4259 -396.2626,428.9423 -457.4032,711.61856 -10.2766,47.5124 -22.4379,129.06594 -22.5192,151.013 l -0.056,14.76676 39.3408,0.99005 c 45.9507,1.15635 47.6931,0.839 49.5653,-9.02536 z m 2274.2373,8.26456 29.8033,0 -2.3452,-33.40351 c -2.7415,-39.0552 -16.743,-124.9525 -28.5235,-174.9917 -50.125,-212.90946 -158.4288,-403.67936 -315.1197,-555.06366 -60.2171,-58.1775 -171.7513,-146.5326 -179.1749,-141.9385 -3.0427,1.8829 -42.3751,69.6532 -42.3751,73.0126 0,0.9219 12.1956,10.797 27.1015,21.945 50.2361,37.5712 130.2614,108.2079 130.2614,114.9793 0,2.2472 -11.8022,15.8246 -26.2272,30.1719 -14.425,14.3472 -26.2271,28.2884 -26.2271,30.9798 0,2.6915 9.0484,14.5816 20.1075,26.4221 60.6859,64.9747 121.3772,152.6804 162.5994,234.9748 18.9497,37.83036 51.4615,119.45036 62.067,155.81776 4.2124,14.4438 8.8434,27.5159 10.2916,29.0492 1.448,1.5333 19.4944,-1.4428 40.1029,-6.6135 25.3127,-6.3511 38.62,-8.25 41.0141,-5.8527 7.9191,7.9294 29.7307,113.3746 36.4059,176.00053 2.6903,25.23712 5.6475,29.06136 20.3814,26.35644 5.5294,-1.0152 23.4649,-1.84586 39.8567,-1.84586 z M 3037.3538,-1574.0852 c 77.5606,-15.6569 103.7079,-17.9174 206.3199,-17.8375 104.3803,0.08 135.8132,3.1611 216.5941,21.2205 21.0371,4.7028 39.3661,7.3501 40.7317,5.8824 1.3654,-1.4677 6.7866,-18.0125 12.0476,-36.7664 5.2611,-18.7539 11.5069,-35.7112 13.8804,-37.6834 5.4508,-4.5299 83.8075,20.3041 148.2317,46.9797 41.5672,17.2116 45.8464,18.3217 50.3125,13.0528 7.9762,-9.4108 37.4995,-62.8226 37.4995,-67.8423 0,-2.5562 -18.4251,-12.7416 -41.089,-22.7136 -110.8231,-48.7624 -225.8434,-81.8683 -338.3304,-97.38 -56.5477,-7.7979 -175.2,-10.624 -231.4618,-5.5134 -136.2225,12.3748 -275.1118,49.7901 -399.2071,107.5423 l -32.6907,15.2138 18.2941,34.218 c 10.0616,18.8199 19.7636,36.0823 21.56,38.3614 2.4318,3.0848 10.5782,0.9759 31.8818,-8.2533 73.9289,-32.0276 158.1312,-59.3698 165.0717,-53.6024 2.3313,1.9375 8.5633,18.8665 13.8489,37.6204 11.3756,40.3603 11.2688,40.1452 18.7165,37.8033 3.2037,-1.0074 24.7087,-5.6434 47.7886,-10.3023 z"
       style="fill:#ff0000"
       sodipodi:nodetypes="ssssssssssssssscsscccsscscssssssssscscsscsssccscssscssssscscccscssssssscsssscssssssccsccsscscccscssscscssscsccsccssssssssssscscscscscscscsscccssscssssccsccsccssssssssssccscccsscscscscssssscscscscs" />
  </g>
  <g
     inkscape:groupmode="layer"
     id="layer9"
     inkscape:label="logo rotated"
     style="display:inline">
    <path
       inkscape:connector-curvature="0"
       id="path4087-7"
       d="m 1981.3085,1548.4035 c 12.0716,-260.3553 122.8814,-533.6302 304.454,-750.83383 41.1122,-49.1799 119.1828,-126.11645 166.2868,-163.87154 174.7883,-140.09692 400.9761,-233.3201 644.9917,-265.83326 57.4063,-7.64882 194.0547,-10.43009 252.361,-5.13643 178.4942,16.20568 350.5059,71.83023 515.9467,166.8455 273.4944,157.0723 460.7141,382.25343 560.312,673.92326 138.6729,406.0993 82.9214,798.1706 -163.7831,1151.807 -181.8089,260.612 -453.4745,434.161 -781.962,499.5432 -89.3402,17.7824 -134.9596,22.7704 -225.5874,24.6651 -87.6765,1.8331 -138.5626,-1.291 -211.7308,-12.9978 -297.1328,-47.5411 -598.8083,-222.9875 -787.4085,-457.9348 -185.5636,-231.1646 -288.1118,-553.238 -273.8804,-860.1764 z m 92.9645,207.805 c 15.3568,111.0461 44.7031,215.2464 91.1455,323.6309 9.2328,21.5469 18.8035,41.2888 21.2682,43.8706 3.7825,3.9627 9.1696,2.1623 34.5541,-11.5478 46.151,-24.926 44.1788,-18.1355 21.2411,-73.1312 -22.6285,-54.2542 -48.8874,-134.157 -46.3037,-140.8967 0.9591,-2.5014 16.8199,-8.8041 35.2462,-14.0048 18.4263,-5.201 35.1917,-10.8175 37.2566,-12.4809 2.6932,-2.1698 1.5672,-12.7382 -3.984,-37.3953 -30.6834,-136.2879 -30.5204,-288.5585 0.457,-426.9209 4.5769,-20.4429 7.6245,-37.8667 6.7726,-38.7192 -0.8519,-0.8527 -17.2005,-5.9172 -36.3304,-11.2547 -19.1298,-5.3374 -35.8962,-11.5097 -37.2587,-13.7165 -4.717,-7.6395 27.2041,-106.3092 51.24,-158.3852 7.5061,-16.263 13.6477,-30.8013 13.6477,-32.3066 0,-3.3728 -65.1527,-40.5962 -71.0558,-40.5962 -4.9066,0 -25.3874,42.8735 -46.3796,97.089 -40.3217,104.1374 -65.4525,208.3453 -76.4037,316.8176 -4.493,44.5026 -1.5394,183.4792 4.8869,229.9479 z m 235.2177,-769.90003 c 17.9066,10.305 33.792,19.18963 35.3008,19.74313 1.5089,0.5535 15.7963,-16.30943 31.7499,-37.47293 38.5442,-51.1324 90.163,-108.00488 100.3504,-110.56413 6.872,-1.72673 12.4807,2.20514 34.7301,24.34548 l 26.5348,26.40469 36.9548,-33.13789 c 108.7794,-97.54413 237.0671,-170.81769 369.6304,-211.12102 16.3785,-4.97949 29.7484,-10.11066 29.711,-11.40242 -0.038,-1.29194 -3.8357,-16.91234 -8.4402,-34.71195 -11.2232,-43.38513 -11.2352,-43.28879 5.9464,-47.91981 27.5243,-7.41873 96.7153,-19.98401 138.6747,-25.18357 24.6102,-3.04965 43.3313,-6.99993 44.9978,-9.4942 1.5697,-2.34932 2.0466,-8.67921 1.0599,-14.06581 -0.9866,-5.38679 -1.7939,-22.85334 -1.7939,-38.81449 l 0,-29.02035 -28.0776,2.28746 c -121.6163,9.90754 -263.4482,45.92898 -374.5776,95.13236 -122.689,54.3216 -223.2776,124.24264 -324.0911,225.2823 -64.5855,64.73025 -151.0113,170.99615 -151.1652,185.86665 -0.031,2.9076 13.9812,13.1863 32.5046,23.8465 z m -10.1015,1327.17233 c 37.3351,50.2854 68.2987,85.8881 116.8155,134.3188 147.3964,147.1334 338.6091,255.3328 542.1127,306.7594 48.9974,12.3818 128.1317,26.1929 167.386,29.2134 l 28.1015,2.1621 2.1647,-37.8722 c 1.1907,-20.8294 1.3713,-39.9415 0.4013,-42.4722 -1.1888,-3.101 -14.1933,-5.987 -39.9059,-8.8553 -42.4382,-4.7346 -114.316,-17.947 -141.3489,-25.9825 -20.7701,-6.1742 -20.6953,-5.7844 -9.1457,-47.5784 4.6564,-16.8495 8.4851,-32.3787 8.5083,-34.5089 0.023,-2.1304 -22.9143,-11.6789 -50.9723,-21.2192 -91.3531,-31.0615 -173.2734,-72.3911 -253.9422,-128.1169 -37.1909,-25.6917 -95.2501,-72.6135 -113.4695,-91.7029 -6.4506,-6.7587 -14.1465,-12.2888 -17.1018,-12.2888 -2.9554,0 -16.783,11.4973 -30.7281,25.5498 -13.945,14.0524 -27.1575,25.5498 -29.3609,25.5498 -6.8017,0 -65.1969,-64.2689 -97.502,-107.3091 -16.8759,-22.484 -32.704,-41.3652 -35.1738,-41.9586 -6.1213,-1.4703 -69.3897,36.6544 -69.3897,41.8134 0,2.2693 10.1478,17.793 22.5508,34.4983 z m 219.6979,-360.0219 c 17.1504,37.38 60.5263,110.3021 76.9972,129.4447 l 12.6822,14.7395 140.9349,-108.0087 c 77.5142,-59.4049 144.3703,-110.2624 148.5691,-113.0163 7.1851,-4.7124 8.2921,-4.243 18.8144,7.9793 42.0399,48.8321 90.9753,86.9808 143.4262,111.811 31.5532,14.9375 85.0591,32.3315 99.4554,32.3315 18.0118,0 18.106,-1.4827 -12.1338,190.7843 -18.0304,114.6384 -27.1966,181.6381 -25.1249,183.65 11.0009,10.6852 201.2537,13.4185 211.0379,3.032 3.3206,-3.5248 -0.7646,-41.814 -19.8292,-185.8475 -13.2063,-99.7742 -23.0879,-182.3323 -21.9592,-183.4622 1.1287,-1.1297 13.2511,-4.1847 26.9386,-6.7888 57.2868,-10.8999 116.3171,-35.8106 162.2114,-68.4535 12.4474,-8.8532 36.9609,-30.3297 54.4744,-47.7254 18.7703,-18.6437 33.4409,-30.6582 35.7349,-29.2653 2.1407,1.3001 64.5515,51.7293 138.6907,112.0653 74.139,60.3352 138.1859,111.7661 142.3262,114.2906 6.8448,4.173 8.2977,3.6623 16.0117,-5.6302 30.2078,-36.3907 99.9834,-155.5493 99.9216,-170.6413 -0.021,-5.3684 -29.4851,-18.6955 -168.7696,-76.3402 -92.8085,-38.4098 -169.5865,-71.8852 -170.6174,-74.3901 -1.031,-2.5047 2.9566,-20.1339 8.8614,-39.1763 15.774,-50.8698 18.7384,-70.3083 18.7879,-123.1951 0.047,-50.0083 -2.8002,-69.4615 -17.287,-118.1305 -4.839,-16.2571 -7.9776,-31.6988 -6.9748,-34.3144 1.0027,-2.616 72.0416,-31.8162 157.8637,-64.8895 85.8225,-33.0735 162.6839,-62.7572 170.8035,-65.9638 13.7599,-5.4347 14.6243,-6.5252 12.7215,-16.048 -5.5765,-27.9086 -91.2594,-179.2863 -101.48,-179.2863 -1.6809,0 -68.7881,50.6952 -149.1271,112.6559 l -146.071,112.6556 -38.3212,-38.8298 c -59.7057,-60.4984 -117.13,-94.2609 -189.7693,-111.575 -46.879,-11.1731 -47.831,-11.6482 -45.8049,-22.8528 0.9418,-5.2089 13.9592,-87.5449 28.9274,-182.9687 20.729,-132.15103 26.2251,-174.11056 23.062,-176.06718 -13.912,-8.60654 -199.3645,-12.01225 -207.5547,-3.81185 -3.4842,3.48891 0.1009,38.24393 18.6239,180.55203 12.6163,96.9275 22.9051,179.6516 22.8642,183.8315 -0.081,8.1832 0.7217,7.8583 -39.9795,16.1923 -77.1445,15.7962 -143.4704,52.0677 -200.7931,109.8078 -17.2664,17.3919 -33.3623,31.6216 -35.7688,31.6216 -2.4063,0 -68.2239,-51.3549 -146.2612,-114.1223 -78.0372,-62.7672 -143.2474,-114.1223 -144.9115,-114.1223 -3.7708,0 -35.3155,43.7406 -57.934,80.3323 -20.0353,32.4132 -51.689,94.5966 -51.689,101.5433 0,2.8151 10.3645,9.1455 24.6741,15.0706 13.5708,5.6193 88.9971,36.5521 167.614,68.7393 78.6169,32.1869 144.9718,60.4808 147.4554,62.8752 3.7396,3.6053 2.7844,9.2627 -5.5591,32.9262 -16.7334,47.4595 -22.3346,81.0929 -22.3459,134.1788 -0.01,50.3073 2.8533,69.8968 17.3231,118.4915 5.3607,18.0033 7.665,31.1061 5.7858,32.9008 -1.7175,1.6401 -77.2644,31.5619 -167.8819,66.4929 -90.6175,34.9305 -167.6489,65.0586 -171.1809,66.9506 -7.6428,4.0946 -7.0699,6.4282 11.5343,46.9769 z M 3333.0969,541.48283 c 4.0052,0.7618 23.4151,3.07196 43.1333,5.13312 40.0858,4.1906 128.2908,21.527 139.1659,27.35305 8.806,4.71734 8.839,3.80337 -1.6322,45.15286 -4.7813,18.88066 -7.4614,35.40002 -5.9559,36.71038 1.5057,1.30978 18.8182,7.36739 38.4724,13.46133 130.2885,40.39578 262.2526,116.70457 363.376,210.12327 l 31.5515,29.14709 30.8726,-28.21188 30.8727,-28.21208 28.5471,30.02482 c 15.7006,16.51362 41.6535,47.08508 57.6729,67.93618 16.0194,20.8508 32.62,42.4361 36.8899,47.9667 l 7.7637,10.05583 34.6481,-21.43453 c 19.0565,-11.7891 34.6482,-23.4864 34.6482,-25.9943 0,-2.5079 -11.2687,-19.716 -25.0419,-38.2407 -167.5907,-225.40726 -416.9139,-386.02866 -691.6633,-445.59024 -46.1801,-10.01119 -125.4467,-21.85842 -146.7783,-21.93762 l -14.3526,-0.0546 -0.9624,38.32478 c -1.1239,44.76397 -0.8155,46.46138 8.7723,48.28522 z m -8.0328,2215.50267 0,29.0336 32.4668,-2.2846 c 37.96,-2.6707 121.4486,-16.3106 170.0846,-27.7869 206.9391,-48.8304 392.3594,-154.3372 539.4986,-306.9814 56.546,-58.6619 142.4235,-167.3156 137.9582,-174.5475 -1.8301,-2.9641 -67.7,-41.2807 -70.9652,-41.2807 -0.896,0 -10.4942,11.8806 -21.3296,26.4016 -36.5176,48.9387 -105.1735,126.8972 -111.755,126.8972 -2.1842,0 -15.3809,-11.4974 -29.3258,-25.5498 -13.9449,-14.0525 -27.4952,-25.5498 -30.1111,-25.5498 -2.616,0 -14.1727,8.8147 -25.6812,19.5882 -63.1527,59.1186 -148.3989,118.2425 -228.3856,158.4001 -36.7696,18.4603 -116.1008,50.1325 -151.4484,60.4641 -14.0387,4.1036 -26.7443,8.615 -28.2346,10.0258 -1.4903,1.4106 1.4024,18.9909 6.4281,39.0672 6.173,24.659 8.0186,37.6226 5.6885,39.9548 -7.707,7.7146 -110.1953,28.9629 -171.065,35.4657 -24.5294,2.6208 -28.2465,5.5017 -25.6175,19.8551 0.9868,5.3865 1.7942,22.8588 1.7942,38.8273 z m 892.9793,-1336.3308 c 15.2178,75.5576 17.4149,101.0296 17.3373,200.9915 -0.078,101.6846 -3.0725,132.3057 -20.6254,211.0003 -4.571,20.4938 -7.144,38.3495 -5.7175,39.6798 1.4266,1.3301 17.5074,6.6113 35.7354,11.7365 18.228,5.1252 34.7098,11.2097 36.6267,13.5219 4.4029,5.31 -19.7347,81.6431 -45.6623,144.4034 -16.729,40.4937 -17.8079,44.6624 -12.6868,49.0132 9.1469,7.7702 61.0609,36.531 65.9399,36.531 2.4845,0 12.3843,-17.9493 22.0766,-40.0278 47.3951,-107.961 79.5726,-220.0108 94.6493,-329.5927 7.5792,-55.0873 10.3261,-170.6753 5.3588,-225.484 -12.0278,-132.7044 -48.3939,-268.0068 -104.5266,-388.8972 l -14.7872,-31.8464 -33.2584,17.8216 c -18.2922,9.8018 -35.0705,19.2532 -37.2857,21.0032 -2.9983,2.369 -0.9485,10.305 8.0219,31.0584 31.1295,72.0196 57.7049,154.0473 52.0993,160.8086 -1.8832,2.2711 -18.3375,8.3421 -36.5655,13.4912 -39.2285,11.0818 -39.0194,10.9778 -36.7432,18.2331 0.9791,3.121 5.4851,24.0706 10.0134,46.5544 z"
       style="fill:#ff0000;display:inline"
       sodipodi:nodetypes="ssssssssssssssscsscccsscscssssssssscscsscsssccscssscssssscscccscssssssscsssscssssssccsccsscscccscssscscssscsccsccssssssssssscscscscscscscsscccssscssssccsccsccssssssssssccscccsscscscscssssscscscscs" />
  </g>
  <g
     inkscape:groupmode="layer"
     id="layer10"
     inkscape:label="text_ring_large"
     style="display:none">
    <path
       style="color:#000000;fill:#ff0000;fill-opacity:1;fill-rule:nonzero;stroke:#000000;stroke-width:4.45817757px;stroke-linecap:butt;stroke-linejoin:miter;stroke-miterlimit:4;stroke-opacity:1;stroke-dasharray:none;stroke-dashoffset:0;marker:none;visibility:visible;display:inline;overflow:visible;enable-background:accumulate"
       d="m 4722.7703,1592.8154 c 0.01,-8.6974 -2.0174,-10.8848 -8.2088,-16.6327 -5.0814,-4.7174 -10.8166,-8.0454 -12.7611,-7.4007 -2.1753,0.7217 -4.176,18.0394 -5.1865,45.0391 -1.039,27.7694 -2.9618,44.3134 -5.2611,45.0762 -1.9984,0.663 -8.2771,-3.1341 -13.9551,-8.4471 -9.9171,-9.2795 -10.3357,-10.7057 -10.3357,-36.0685 0,-24.6991 -0.558,-26.8331 -8.7685,-33.3025 -10.9512,-8.629 -14.1085,-4.8427 -14.179,17.1185 -0.063,19.9022 -3.8142,20.0164 -27.0892,0.8222 -22.1561,-18.2711 -26.2284,-18.6731 -24.8878,-2.5041 0.9512,11.4678 5.0652,15.7554 61.1187,64.1383 33.042,28.5201 61.4817,51.8414 63.2082,51.8414 1.8197,0 3.1343,-16.3896 3.1343,-38.9838 0,-21.4381 0.934,-50.1829 2.0895,-63.8768 0.64,-7.5844 1.0785,-12.866 1.0821,-16.8195 z m -3.2089,177.2777 c -0.2101,-4.4819 -1.963,-8.2603 -4.8507,-8.2603 -9.1937,0 -124.8159,33.5216 -128.8045,37.3392 -2.1907,2.0971 -4.4069,8.8863 -4.9252,15.1003 -0.9122,10.9305 0.2934,12.1977 36.8279,38.7596 44.1094,32.0688 55.2628,42.3084 50.7829,46.6834 -1.9791,1.933 -20.2424,0.059 -48.7681,-5.0459 -25.0833,-4.4872 -47.6135,-7.4122 -50.074,-6.466 -2.4602,0.9458 -4.4776,6.0823 -4.4776,11.3997 0,9.6535 0.041,9.663 32.0146,15.2499 63.1005,11.026 68.0394,12.5024 69.2156,20.7441 1.1275,7.9002 15.9754,16.0663 20.6714,11.3625 3.5862,-3.5926 12.2346,-58.9386 9.776,-62.5687 -1.0847,-1.6021 -20.1565,-16.6294 -42.3875,-33.3774 -22.2309,-16.748 -39.8397,-32.1859 -39.1414,-34.3118 0.6983,-2.1264 23.3095,-10.2922 50.2607,-18.165 26.9507,-7.8724 50.0903,-16.0119 51.4173,-18.0904 1.8723,-2.9324 2.626,-6.8678 2.4626,-10.3532 z m -22.9475,-434.0181 c 0,-5.7579 -1.8466,-12.7512 -4.1045,-15.5487 -2.2577,-2.798 -28.0474,-12.7467 -57.3127,-22.0898 -29.265,-9.3437 -54.2443,-18.6737 -55.5217,-20.7441 -4.2157,-6.8322 13.758,-18.1332 35.3354,-22.2015 19.7309,-3.7204 34.7684,-2.4486 59.4396,5.0458 4.3293,1.3151 5.7466,-0.1251 5.7089,-5.8683 -0.079,-11.8793 -3.4824,-14.7903 -24.328,-20.856 -31.2397,-9.0913 -64.4375,-1.8364 -89.7379,19.5853 -8.5882,7.272 -10.6334,11.3893 -10.4476,21.0805 0.1272,6.6236 1.3501,14.9107 2.7239,18.4266 1.8436,4.7185 15.76,10.8063 53.1337,23.2857 31.896,10.6507 50.9777,18.7155 51.5665,21.7532 0.5335,2.7523 -14.2673,17.6372 -34.4772,34.6856 -45.5953,38.4635 -47.7579,40.9429 -45.074,51.6546 1.1866,4.7355 3.4945,8.5965 5.1118,8.5965 1.6175,0 26.5558,-19.4204 55.4471,-43.17 47.8151,-39.3043 52.5367,-44.1073 52.5367,-53.6354 z m -41.8279,-194.5083 -13.9923,-38.5354 c -7.6963,-21.1771 -15.667,-40.6947 -17.6864,-43.3944 -2.8692,-3.8359 -15.5538,-5.3899 -58.059,-7.1017 l -54.3651,-2.2052 -8.8058,11.1756 c -4.8346,6.1466 -8.8232,12.0042 -8.8432,13.0073 -0.02,1.0036 9.5993,28.382 21.3803,60.8491 11.781,32.468 23.0577,63.0996 25.0371,68.0631 2.6056,6.5335 7.1797,10.0162 16.6043,12.5585 16.5166,4.4553 18.939,2.898 64.0664,-40.8527 z m -29.216,-4.2611 -25.7087,23.6222 c -29.6373,27.2236 -34.1485,30.3055 -38.1712,26.2757 -3.3832,-3.3889 -39.0112,-99.3808 -39.0667,-105.2526 -0.022,-2.1552 1.25,-4.7372 2.8358,-5.7186 1.5856,-0.9818 19.4862,-0.8267 39.7756,0.3363 36.0849,2.0686 37.0084,2.3063 42.5741,11.4747 3.1297,5.1546 8.3999,18.368 11.7164,29.3407 z m -5.1865,1048.4537 c -0.465,-6.5617 -12.0836,-11.5788 -45.2608,-22.912 -31.5857,-10.7906 -44.3277,-16.6285 -44.3277,-20.2956 0,-2.8303 15.1433,-17.1704 33.6563,-31.8449 18.513,-14.6749 33.6563,-27.8646 33.6563,-29.3407 0,-1.4763 -2.9745,-5.3811 -6.6044,-8.6714 -8.3563,-7.5755 -10.5077,-6.4495 -55.5591,29.0045 -32.4871,25.5661 -41.559,36.9575 -42.686,53.6728 -0.1376,2.0376 26.5676,13.0172 59.3276,24.4069 57.4588,19.9765 59.6975,20.5012 64.1037,14.4649 2.2198,-3.0411 3.6103,-5.5542 3.6941,-7.8493 0.01,-0.2149 0.016,-0.4236 0,-0.6352 z m -25.6714,57.4104 c 0.1342,-4.9899 -34.97,-25.1806 -40.2234,-23.1362 -2.1941,0.8543 -15.0862,21.3328 -28.6191,45.525 l -24.5892,43.9922 -1.8656,37.8251 c -1.0294,20.8063 -2.1616,44.1151 -2.5001,51.8043 -0.3385,7.6893 0.8362,13.9789 2.612,13.9789 8.2178,0 19.0146,-31.5972 21.343,-62.4938 2.2539,-29.9065 3.1261,-32.6935 20.858,-64.9607 19.0993,-34.7561 22.895,-37.8128 37.1637,-30.163 5.2921,2.8369 7.5182,2.3423 11.1566,-2.467 2.5037,-3.3095 4.6067,-7.7762 4.6641,-9.9048 z m -1.4179,-1258.77211 c -0.3966,-4.037 -11.3499,-29.9344 -25.4848,-60.2138 -26.9185,-57.6655 -27.6273,-58.7973 -39.589,-61.7838 -6.6999,-1.6727 -12.9566,-2.2333 -13.9178,-1.2708 -0.9613,0.9629 6.3899,19.3367 16.3431,40.8528 9.9531,21.516 18.1095,40.9833 18.1341,43.2448 0.066,5.959 -3.4479,5.4593 -63.5813,-9.0452 -30.0037,-7.2369 -56.0194,-13.1566 -57.8352,-13.1566 -4.7844,0 -4.09,3.614 2.9477,15.175 6.0144,9.8794 8.9926,10.921 83.5812,29.4903 42.5315,10.5885 78.2177,18.3422 79.3274,17.2306 0.07,-0.069 0.1011,-0.2541 0.074,-0.5233 z m -67.4246,1218.62951 c 0,-1.5178 -8.8347,-7.4519 -19.5893,-13.1939 l -19.552,-10.428 -5.597,8.5966 c -5.5055,8.4169 -5.4211,8.754 3.6941,16.0345 10.9935,8.7809 11.2816,7.6413 -13.3581,51.6172 -16.4046,29.2778 -20.4687,34.0195 -42.4249,49.7111 -22.455,16.0478 -37.5787,34.0086 -37.7607,44.852 -0.058,3.4464 2.0239,3.1338 8.9551,-1.3829 4.967,-3.2365 23.447,-15.4604 41.0442,-27.1729 l 31.9773,-21.3047 26.3057,-47.2816 c 14.462,-26.0061 26.3056,-48.5297 26.3056,-50.0474 z M 4499.6759,812.42749 c 0.01,-0.3986 -0.1119,-0.8507 -0.1119,-1.3829 0,-3.9801 -68.34,-102.2773 -73.6185,-105.8883 -4.6327,-3.1698 -24.8878,-3.2325 -24.8878,-0.075 0,1.3468 11.366,19.0926 25.2609,39.4699 16.2655,23.8539 24.1337,38.2069 22.0893,40.2546 -1.7462,1.7494 -8.8381,2.2444 -15.7461,1.1213 -10.5096,-1.7083 -15.236,-5.4249 -28.9549,-22.9118 -15.2209,-19.4013 -17.3066,-20.9309 -29.4026,-20.9309 -14.1688,0 -14.1898,0.4019 -0.6716,18.7257 14.1971,19.2436 11.6021,21.677 -20.1863,19.0246 -30.5429,-2.5481 -32.8436,-1.0682 -20.5222,13.2314 7.2143,8.3726 9.1627,8.729 82.9095,14.9134 78.648,6.5951 83.7893,7.24 83.8423,4.4477 z m -121.8643,-171.1104 c 0.1242,-1.4571 -4.7191,-7.6704 -11.3058,-14.4276 -10.2036,-10.4676 -18.3129,-14.8004 -40.3354,-21.529 -25.6918,-7.8498 -29.5001,-10.2345 -55.9694,-35.1341 -15.6224,-14.6961 -28.9047,-28.7715 -29.5146,-31.2843 -0.6097,-2.5128 1.3773,-7.3029 4.4029,-10.6523 6.5112,-7.2065 5.5115,-15.9852 -2.3881,-20.9683 -4.6799,-2.9522 -8.3157,-1.0085 -20.6714,11.1383 -8.2362,8.0971 -14.5487,17.0792 -14.0296,19.9591 0.5189,2.88 17.96,21.5429 38.7309,41.4881 l 37.7607,36.2553 45.8578,13.4931 c 25.2169,7.4072 46.5326,12.7421 47.3874,11.8858 0.054,-0.053 0.066,-0.1274 0.074,-0.2241 z m -8.7685,1965.30351 -27.4997,-64.4 c -15.1347,-35.403 -29.2311,-64.9407 -31.3056,-65.6335 -4.4317,-1.4798 -63.5067,70.2516 -63.5067,77.1082 0,2.5679 1.5259,7.5267 3.3955,11.0262 1.8697,3.4995 5.1938,6.3064 7.3879,6.2418 2.1942,-0.066 12.1183,-10.4052 22.0521,-22.9865 9.9337,-12.582 20.4107,-22.8929 23.2832,-22.9119 3.4948,-0.032 9.7363,10.5701 18.8805,32.0317 7.5157,17.6401 13.66,33.4209 13.6565,35.0592 0,1.6391 -3.9482,8.1343 -8.7686,14.4648 l -8.7685,11.5121 10.5222,9.4189 c 12.3426,11.0469 17.4302,9.6329 31.5668,-8.933 z m -60.5964,69.5954 c -0.01,-0.2048 -0.01,-0.4039 -0.037,-0.598 -1.4379,-8.7679 -75.1552,-95.1039 -80.2602,-94.0023 -9.5008,2.0493 -129.2149,105.5536 -129.2149,111.7189 0,3.3923 16.6053,26.1098 36.9025,50.4959 20.2974,24.386 38.6268,44.3662 40.7085,44.3662 2.0817,0 16.5019,-10.5957 32.0519,-23.51 l 28.2833,-23.4726 -0.074,-26.6868 c -0.063,-33.4324 -2.3746,-37.8353 -14.1416,-26.9113 -7.2288,6.7109 -8.7686,11.0109 -8.7686,24.3322 0,14.9564 -1.1136,17.2057 -14.7013,29.7518 -8.0872,7.4675 -16.6508,13.6052 -19.0297,13.6052 -6.1288,0 -48.8612,-52.7184 -47.6859,-58.8309 0.9907,-5.1547 90.0297,-82.6399 94.9615,-82.6399 2.2969,0 14.2598,13.5284 60.5217,68.474 6.0988,7.2435 7.4798,7.6028 14.067,3.5135 3.7649,-2.3374 6.5075,-6.5344 6.4179,-9.6059 z m -15.746,-1945.79291 c 0,-1.172 -6.0832,-21.5779 -13.5073,-45.3755 l -13.5073,-43.2821 -40.6712,-40.9649 -40.7085,-41.0023 -16.4177,16.1843 c -9.025,8.9042 -16.4177,17.1326 -16.4177,18.2771 0,1.1445 2.9547,4.7611 6.5671,8.036 5.8794,5.3302 7.1686,5.4348 12.3133,1.0091 12.5461,-10.7929 13.8786,-10.1978 45.1488,20.5198 29.1867,28.6716 31.5224,32.0262 42.686,60.8867 9.1361,23.6198 14.3942,32.4644 23.1714,39.1708 6.2404,4.768 11.3431,7.7128 11.3431,6.541 z m -82.0886,-250.9473 c 0,-2.4111 -46.6841,-40.6794 -58.1336,-47.6552 -4.7095,-2.8695 -60.1112,10.5308 -60.1112,14.5396 0,1.545 3.6067,5.1749 8.0222,8.0734 6.2066,4.0732 12.1934,4.7565 26.3057,2.9901 16.4746,-2.062 19.3355,-1.441 29.4399,6.2794 21.7654,16.6296 22.641,18.0983 16.2685,27.9202 -3.0961,4.7715 -13.5722,18.6824 -23.2833,30.9105 -15.5247,19.549 -18.47,21.8431 -24.2162,18.7631 -13.9017,-7.4532 -94.9242,-73.1125 -94.9242,-76.9213 0,-2.2119 13.5593,-21.5293 30.1488,-42.9084 l 30.1863,-38.8717 -7.6865,-6.2045 c -4.2195,-3.4228 -8.9531,-5.7942 -10.5222,-5.2703 -5.1442,1.7176 -74.6553,92.8783 -74.8126,98.1141 -0.086,2.8278 28.0539,27.1485 63.0589,54.4951 34.7687,27.1625 65.1254,50.5221 67.4619,51.9162 2.3381,1.3948 6.5558,0.617 9.3656,-1.7193 7.3666,-6.1241 73.432,-91.0952 73.432,-94.451 z m -62.4246,2328.53051 c 0,-3.168 -17.4919,-13.824 -81.5662,-49.5615 l -37.2385,-20.7814 -11.1939,6.0549 c -13.4217,7.2404 -13.4978,8.083 -4.5894,62.0081 3.6347,22.002 7.2226,43.7944 7.9849,48.4026 1.6539,9.9989 -2.5344,18.0517 -7.7237,14.8387 -2.0421,-1.2642 -15.6007,-19.2025 -30.1489,-39.881 -14.5482,-20.6783 -27.9091,-37.6008 -29.7012,-37.6008 -7.5638,0 -16.5311,7.435 -15.149,12.5959 0.8064,3.0112 13.695,22.9535 28.6189,44.2913 26.1644,37.4083 26.9125,39.0279 21.3805,45.151 -5.4188,5.9979 -5.404,6.8232 -0.1123,14.9133 6.6487,10.1647 7.914,9.7624 35.9324,-10.4281 25.3512,-18.2682 24.5985,-14.3058 15.261,-77.1082 -6.1875,-41.6174 -6.2508,-49.1503 -0.3731,-49.1503 1.4443,0 22.8155,11.2201 47.4994,24.9677 43.6848,24.3291 45.1118,24.8517 53.0218,19.6602 4.4697,-2.9336 8.0969,-6.6844 8.0969,-8.3724 z M 4010.2786,395.19149 c 0,-4.3754 -14.9954,-11.0377 -17.8355,-7.9239 -2.9747,3.2611 -34.4059,67.4497 -34.5519,70.5671 -0.092,1.9712 3.4204,5.2158 7.7983,7.2138 5.9527,2.7162 8.7573,2.6764 11.1194,-0.2616 5.924,-7.366 33.4697,-64.6421 33.4697,-69.5954 z m -41.1562,-16.8569 c 0.022,-2.7559 -0.5102,-5.0553 -1.6791,-6.4663 -7.0467,-8.5051 -14.7088,-5.2988 -21.9773,9.1948 -8.8443,17.6363 -8.8525,17.5679 -0.224,23.622 6.2784,4.405 7.8715,4.4257 12.4253,0.2991 6.5006,-5.8931 11.3907,-18.3828 11.4551,-26.6496 z m -17.9476,-58.7561 c 0,-7.0594 -12.8094,-13.3696 -17.537,-8.6341 -3.5518,3.5578 -34.1512,65.2228 -34.7385,70.0065 -0.1589,1.2937 2.5885,3.8832 6.0821,5.7561 3.4936,1.8732 7.9051,3.4013 9.8133,3.4013 3.9044,0 36.3801,-62.9567 36.3801,-70.5298 z m -7.0521,2601.11841 c -0.012,-1.5906 -0.3316,-2.836 -1.0074,-3.5134 -0.8401,-0.8413 -19.2349,6.2358 -40.8951,15.7356 -21.66,9.4999 -41.5848,16.4247 -44.2532,15.3993 -4.0627,-1.5619 -2.4145,-11.248 10.1864,-59.6532 8.2756,-31.7913 14.0724,-58.7879 12.873,-59.9897 -1.1995,-1.2011 -6.9283,0.054 -12.7236,2.8034 -10.3071,4.8893 -10.98,6.6228 -30.8206,78.7153 -21.0749,76.5775 -22.9001,85.2188 -18.0596,85.2188 3.9843,0 105.4624,-45.3215 114.0658,-50.9445 5.1569,-3.3705 10.6772,-16.8798 10.6343,-23.7716 z M 3908.4888,295.32099 c 0,-4.9537 -16.0592,-8.8815 -20.0371,-4.8963 -1.7128,1.7147 -10.0784,21.3877 -18.6192,43.7306 -8.5407,22.3428 -17.3702,41.2405 -19.5892,41.9741 -2.3286,0.7696 -7.3144,-6.0745 -11.7909,-16.1842 -48.8738,-110.3643 -55.3671,-121.1378 -72.9471,-121.1378 -5.325,0 -4.4889,2.36 24.1416,70.7167 38.0593,90.8695 42.3701,97.6915 64.9991,102.2252 l 9.888,1.9809 21.9775,-57.3358 c 12.0877,-31.533 21.9773,-59.0132 21.9773,-61.0734 z m -118.2449,69.8943 c 0,-5.5075 -70.5308,-67.2032 -76.8276,-67.2032 -4.5128,0 -11.4766,8.2486 -11.7163,13.8666 -0.054,1.2883 17.1081,17.2196 38.1711,35.3958 36.3073,31.3302 38.6431,32.7339 44.3652,27.5467 3.3198,-3.0096 6.0076,-7.3316 6.0076,-9.6059 z m -36.3802,2580.78561 c -0.026,-0.7989 -0.4507,-1.6819 -1.1195,-2.7658 -3.4106,-5.528 -64.7936,-36.6201 -72.1632,-36.5543 -3.8042,0.032 -20.008,4.8437 -36.007,10.6896 l -29.067,10.6151 -15.7087,34.5361 c -17.2925,38.0151 -17.7965,39.4697 -13.3582,39.4697 11.2098,0 20.2409,-8.1691 31.4551,-28.5183 12.9274,-23.4591 20.5915,-33.9755 24.813,-33.9755 1.3766,0 10.1729,23.0539 19.5521,51.2433 16.9248,50.8676 17.1411,51.2403 25.7459,49.1132 4.7682,-1.1787 9.6884,-3.1638 10.97,-4.4107 1.2819,-1.2467 -4.8509,-24.4585 -13.6564,-51.5798 -9.5611,-29.4455 -14.8218,-50.5316 -13.0597,-52.3646 1.8071,-1.8784 13.856,2.1747 31.0819,10.4281 23.7248,11.367 29.7437,12.9938 38.283,10.5402 9.0672,-2.605 12.3127,-4.0692 12.2387,-6.4663 z M 3688.2673,220.90399 c -0.053,-2.0635 -0.6374,-3.8768 -1.8655,-5.0458 -2.8523,-2.7153 -44.0413,-9.9423 -56.6786,-9.9423 -4.619,0 -14.8178,11.5079 -34.4398,38.8717 -15.3342,21.3847 -30.0888,40.7308 -32.798,42.9832 -6.6017,5.4882 -8.1656,2.2286 -24.8506,-52.1405 -7.4722,-24.3506 -15.3692,-45.3923 -17.5743,-46.7956 -6.5103,-4.1437 -18.8058,-3.0236 -18.8058,1.7194 0,2.4103 8.1424,31.4708 18.0595,64.587 9.9167,33.1155 19.574,62.055 21.4548,64.3252 4.6629,5.628 22.1631,7.849 27.4252,3.476 2.3564,-1.958 17.204,-22.2963 32.9847,-45.2257 41.3277,-60.0502 45.406,-59.4745 34.9249,5.1205 -8.6904,53.56 -8.6944,53.4976 2.2761,55.6538 4.9671,0.9766 10.0557,0.7694 11.3059,-0.4485 1.2501,-1.2175 5.5115,-22.9237 9.4775,-48.2531 3.9662,-25.3296 8.6701,-47.8979 10.4475,-50.1596 1.7781,-2.2616 5.9714,-4.1115 9.3283,-4.1115 5.0156,0 9.4867,-8.4245 9.3282,-14.6142 z m -95.036,2839.69401 c 0.062,-6.3256 -11.583,-22.0526 -39.4025,-56.9247 -42.5576,-53.3454 -43.8117,-54.5667 -53.8056,-52.4769 -5.6295,1.1768 -12.0041,3.8261 -14.1414,5.9055 -2.1378,2.0799 -8.5779,24.506 -14.3282,49.8231 -12.3266,54.2711 -14.593,60.8492 -20.7462,60.8492 -3.2572,0 -7.7812,-13.4665 -15.2237,-45.2258 -5.8297,-24.8769 -11.9359,-46.8803 -13.5446,-48.8886 -4.738,-5.9153 -19.2907,-1.4576 -19.2907,5.9054 0,3.5277 4.6367,26.606 10.2984,51.2808 l 10.2983,44.8521 -7.0148,4.6721 c -7.3444,4.8849 -9.4814,18.3913 -3.5074,22.0896 1.9166,1.1867 16.6691,-1.1282 32.7982,-5.1206 33.3,-8.2423 28.0464,-0.9576 42.4993,-59.1673 12.75,-51.3502 13.3425,-53.0549 17.9477,-51.9909 2.4486,0.5656 18.3157,18.0281 35.2608,38.8343 24.315,29.8561 32.7793,38.0569 40.1115,38.9093 7.5048,0.872 11.7526,0.4687 11.7909,-3.3266 z m -327.3251,0.3365 c -0.1134,-10.2448 -1.1907,-15.2215 -3.47,-16.6702 -4.9857,-3.1678 -42.37,-3.7229 -50.1115,-0.7474 -4.4154,1.6971 -5.1515,6.5914 -4.3654,28.78 l 0.9702,26.7617 27.91,0 27.9101,0 0.9702,-26.0516 c 0.1733,-4.6508 0.2248,-8.658 0.1864,-12.0725 z m 2.8434,-2922.44621 -24.328,-1.009 c -13.3771,-0.5374 -26.377,-0.1788 -28.8804,0.7847 -3.4584,1.3293 -4.3115,7.8742 -3.5819,27.2851 l 0.9702,25.5656 27.91,0 27.9101,0 0,-26.3131 z m -365.2866,198.732 c -0.33,-6.332 -7.3584,-26.2556 -10.4102,-28.1447 -2.3735,-1.4695 -238.4778,88.9027 -256.5268,98.1885 -3.9325,2.0234 -5.2316,4.9901 -3.7687,8.5968 1.2279,3.027 3.687,9.564 5.485,14.5394 1.7983,4.9753 5.0915,9.0451 7.3133,9.0451 4.1758,0 254.9476,-97.7653 257.6089,-100.4311 0.2581,-0.258 0.3464,-0.8897 0.2985,-1.794 z m -7.5371,2554.73411 c -0.5416,-1.7266 -39.9498,-16.0651 -87.5737,-31.8825 -82.7962,-27.4992 -86.9627,-28.5468 -95.2227,-23.6593 -18.3979,10.8865 -24.7234,17.0825 -21.1192,20.7065 1.9221,1.9327 29.2538,12.1543 60.7456,22.6879 36.7131,12.2801 57.6025,20.8772 58.2083,23.9957 0.6107,3.1448 -24.6852,21.9629 -71.5663,53.2618 -39.8769,26.6225 -71.7502,49.6615 -70.8202,51.1687 0.9301,1.5075 8.1732,4.5471 16.082,6.7652 7.909,2.2182 17.2485,3.5282 20.7834,2.9154 9.2713,-1.608 191.6573,-122.2122 190.4828,-125.9594 z M 2852.8666,196.16049 c 0,-2.5403 -1.377,-6.0518 -4.2534,-11.9978 -3.633,-7.5085 -8.124,-12.3986 -10.8955,-11.8111 -2.5986,0.5504 -57.9249,21.8115 -122.9465,47.2441 -65.0216,25.4324 -121.6342,47.5782 -125.8194,49.1878 -7.8461,3.0175 -7.8806,4.7146 -0.2612,25.1171 1.5207,4.0711 4.5538,7.4007 6.7537,7.4007 6.46,0 250.2639,-95.9016 255.0343,-100.3192 1.5715,-1.4551 2.3884,-2.8454 2.388,-4.8216 z m -19.5519,88.2838 c -0.3024,-7.5122 -6.3663,-23.258 -10.5223,-24.8555 -3.2517,-1.2496 -146.6249,53.0898 -162.4235,61.5594 -7.6474,4.1003 -8.0089,10.187 -1.3432,23.0989 2.7556,5.3376 5.8714,9.6804 6.903,9.6804 3.6257,0 163.8052,-63.3326 166.5651,-65.8578 0.6353,-0.5812 0.8914,-1.892 0.8209,-3.6254 z M 2686.8612,2828.227 c 0,-1.4863 -11.3241,-9.1577 -25.149,-17.0811 -24.8613,-14.249 -25.5623,-14.4344 -65.7455,-16.782 l -40.6338,-2.3921 -46.1936,-27.0235 c -25.3945,-14.872 -46.9693,-29.1425 -47.9472,-31.6954 -0.9778,-2.5526 0.9361,-10.6827 4.2537,-18.0529 l 6.0448,-13.3808 -9.7015,-7.7743 c -5.3448,-4.284 -10.8466,-7.8 -12.2014,-7.8119 -1.3544,0 -2.4626,-4.339 -2.4626,-9.6059 0,-12.3129 -17.9201,-28.8851 -24.925,-23.0613 -2.4628,2.0469 -22.5642,25.8067 -44.701,52.8133 -23.5269,28.7029 -42.2326,48.7194 -45.0368,48.1785 -3.1489,-0.6075 -11.0118,-21.5574 -22.8729,-60.9613 -13.967,-46.4002 -19.3022,-60.027 -23.5072,-60.027 -11.1332,0 -26.1335,7.3116 -26.0072,12.6707 0.07,2.9893 8.8219,35.0179 19.4401,71.2025 l 19.2908,65.8205 15.8955,13.9041 c 8.7274,7.652 16.9501,13.9417 18.2833,13.9788 1.3332,0.037 23.4676,-25.4134 49.2159,-56.5509 46.5956,-56.3479 60.3645,-66.2609 38.8055,-27.9951 -7.9458,14.1028 -9.2465,18.6674 -5.9701,21.3794 2.2901,1.8958 31.987,19.8085 65.9694,39.8437 l 61.7904,36.4422 62.9843,3.2891 c 76.7899,4.0347 81.0811,4.0725 81.0811,0.6727 z m -89.7377,152.796 c -0.169,-4.8852 -61.0716,-105.7873 -70.9694,-117.4376 -4.8911,-5.7574 -126.1429,-78.5234 -132.9089,-79.7618 -3.3521,-0.6134 -34.753,49.4741 -34.7757,55.4669 -0.012,1.8718 4.3063,5.9412 9.5522,9.0453 13.6544,8.0797 17.7227,7.112 24.7011,-5.8682 3.4047,-6.3324 8.2894,-11.512 10.858,-11.512 2.5688,0 26.7403,12.9493 53.7307,28.7799 l 49.0668,28.7803 23.4698,35.5076 c 21.2281,32.1362 25.458,36.6114 44.4399,47.2443 11.5345,6.4617 21.7815,10.9227 22.798,9.9047 0.025,-0.029 0.037,-0.071 0.037,-0.1494 z m -6.082,-2519.03931 c -0.012,-8.5884 -3.8886,-40.8925 -9.0673,-74.9404 -5.5235,-36.3175 -10.0371,-67.4911 -10.0371,-69.2589 0,-4.196 -30.7484,-19.7723 -39.0294,-19.7723 -5.2189,0 -154.5282,92.8035 -169.998,105.6638 -2.8636,2.3812 -4.4402,11.0342 -4.4402,24.4071 l 0,20.7065 35.298,26.0517 c 53.5627,39.5422 92.0361,64.3182 96.7526,62.3069 2.332,-0.9948 25.6385,-15.6847 51.828,-32.6298 43.1523,-27.9219 47.7383,-31.755 48.656,-41.1142 0.037,-0.3555 0.038,-0.8477 0.037,-1.4204 z m -37.7609,-16.5954 c 0.098,4.6834 -0.1478,7.7844 -0.8209,8.5967 -5.2613,6.3503 -61.0161,41.4134 -65.8575,41.4134 -4.2837,0 -81.8687,-55.8894 -88.2079,-63.5403 -2.9115,-3.5147 -2.4895,-5.684 1.9403,-9.4564 3.1544,-2.6861 34.4481,-23.0806 69.5142,-45.338 53.5235,-33.9725 64.3129,-39.6922 67.3126,-35.5827 5.1965,7.1186 15.592,78.6182 16.1192,103.9073 z m -169.513,76.1738 c -0.2452,-7.9314 -3.2814,-19.5967 -6.7536,-22.2392 -2.2055,-1.6785 -31.9893,0.981 -72.0141,6.3914 l -68.2828,9.1947 -16.3056,13.7919 c -8.9679,7.5742 -16.2454,15.402 -16.194,17.3803 0.052,1.9781 25.3133,33.186 56.1561,69.3711 30.8429,36.1847 57.4014,66.2724 58.9919,66.8668 4.9185,1.8377 22.6729,-12.7281 22.6489,-18.5761 -0.015,-3.043 -19.3309,-28.2093 -42.9472,-55.9155 -39.0644,-45.8304 -47.5341,-59.8026 -36.2309,-59.8026 11.6191,0 117.3096,-17.1162 119.5508,-19.3613 0.8963,-0.898 1.3329,-2.9463 1.3805,-5.5691 0.012,-0.4919 0.017,-1.0038 0,-1.5324 z m -57.5364,2047.15871 -29.0297,-33.34 c -15.9694,-18.3402 -30.8818,-33.3655 -33.134,-33.3776 -2.2518,0 -32.6192,7.3995 -67.4992,16.4458 -66.3352,17.2043 -77.8348,19.0229 -77.8348,12.4466 0,-2.1896 11.819,-32.3894 26.2683,-67.1286 14.4492,-34.7389 26.2427,-65.8951 26.1937,-69.2217 -0.048,-3.3272 -4.295,-11.1269 -9.44,-17.3427 -8.8735,-10.7192 -9.5524,-10.9727 -13.2462,-4.9337 -5.9686,9.7578 -75.3533,173.5424 -75.5589,178.3615 -0.099,2.3316 5.4585,10.3151 12.3507,17.7166 l 12.5371,13.4555 72.3498,-18.5388 c 76.1009,-19.4748 86.4916,-21.1794 86.4916,-14.2404 0,2.3506 -22.9368,24.6336 -50.9323,49.5239 -27.9954,24.8902 -50.8403,47.0286 -50.7829,49.1879 0.1404,5.2985 15.0683,22.0147 19.6639,22.0147 2.0222,0 27.0572,-20.7186 55.6338,-46.0479 28.5763,-25.3295 53.1582,-46.0482 54.5888,-46.0482 1.4307,0 6.0633,3.2653 10.2984,7.2511 l 7.6865,7.251 11.7163,-11.7361 z M 2270.7839,725.75099 c -0.086,-2.8202 -1.5496,-5.2918 -3.2089,-9.307 -2.7699,-6.7018 -17.9689,-38.9507 -33.7683,-71.6883 l -28.6937,-59.5412 -12.8356,-2.1304 c -29.3107,-4.85 -24.959,-8.2452 -96.2675,75.5383 -42.992,50.5132 -65.5892,79.5733 -64.5889,83.0509 0.8465,2.9425 3.111,11.4717 5.0373,18.9501 1.927,7.4786 5.599,15.3103 8.1343,17.4174 6.2442,5.1915 131.5966,46.3098 141.1924,46.3098 5.7175,0 15.834,-9.7581 40.186,-38.685 36.4052,-43.244 45.0344,-52.7077 44.8129,-59.9146 z m -40.3726,-3.9247 c 0,5.2943 -49.1525,63.0171 -53.6562,63.0171 -2.1121,0 -26.3715,-7.511 -53.9172,-16.7074 -38.2023,-12.7541 -50.0382,-18.0187 -49.9247,-22.2017 0.082,-3.0158 22.9342,-32.1329 50.7828,-64.699 27.8487,-32.5665 52.6232,-59.6168 55.0742,-60.1393 2.8562,-0.6091 12.9446,16.6203 28.0592,48.0666 12.9666,26.9769 23.5819,50.6843 23.5819,52.6637 z m -85.5961,174.1007 c -0.1109,-2.2922 -3.5734,-11.5484 -7.6864,-20.5946 l -7.4625,-16.4458 -10.5225,16.4458 c -5.7736,9.0462 -21.1479,34.5783 -34.1786,56.7377 -15.3152,26.0445 -25.4254,39.9831 -28.5817,39.4325 -3.1603,-0.5513 -15.2783,-29.5599 -34.3654,-82.2288 -16.2203,-44.7587 -31.0421,-81.3689 -32.91,-81.3689 -4.2011,0 -18.1833,25.8488 -18.1714,33.6016 0.012,3.12 16.2886,51.8574 36.1562,108.2803 19.8678,56.42311 36.119,104.54631 36.119,106.93461 0,5.7184 -0.5703,5.7977 -103.4317,17.6794 -48.7661,5.633 -89.5931,11.2496 -90.7077,12.4838 -1.1145,1.2343 -4.4194,9.526 -7.3508,18.3892 l -5.3357,16.1094 13.8057,15.1376 c 7.5829,8.3245 32.3096,34.7656 54.9621,58.7561 22.6525,23.9905 41.674,45.0797 42.2757,46.8705 2.9046,8.6416 -13.4527,5.1948 -69.8498,-14.6518 -33.7333,-11.8714 -63.3173,-21.5664 -65.7457,-21.5664 -4.5001,0 -11.6416,16.1482 -11.6416,26.3506 0,4.3189 11.7064,9.7048 50.0741,22.9868 80.864,27.9937 84.5884,29.5469 84.5884,35.6946 0,3.0859 -2.1978,8.7488 -4.8878,12.5959 -3.0575,4.3725 -7.8899,31.3033 -12.8357,71.8007 -4.3519,35.6328 -9.4148,66.2812 -11.2687,68.1377 -2.3037,2.3076 -7.5948,-1.1876 -16.7162,-11.0261 -14.9983,-16.1782 -16.1738,-24.0019 -9.9999,-66.7922 l 3.2835,-22.837 -13.7312,-14.0538 c -7.5644,-7.7208 -14.8383,-13.3747 -16.1563,-12.5585 -1.3182,0.8162 -3.447,13.452 -4.739,28.07 -1.6823,19.0365 -3.7712,27.1196 -7.3132,28.4808 -3.3136,1.274 -13.6133,-7.555 -31.2682,-26.7616 -14.4903,-15.763 -27.5015,-27.4443 -28.9176,-25.9768 -2.4972,2.5876 -4.8873,14.6038 -5.8954,29.8266 -0.3223,4.866 5.9571,14.5128 18.2086,27.9577 78.2644,85.889 137.02,147.0864 139.0656,144.8721 2.1586,-2.3368 23.0021,-165.3428 22.9102,-179.1838 -0.021,-3.0272 -3.7308,-9.9116 -8.2463,-15.2872 -4.5153,-5.3751 -8.2087,-10.6199 -8.2087,-11.6615 0,-1.0412 5.5402,-1.5566 12.3133,-1.1587 l 12.3133,0.7102 12.0519,-36.1807 c 6.6384,-19.9013 12.1785,-39.6298 12.3134,-43.8427 0.1774,-5.5469 -13.0974,-21.683 -48.171,-58.4572 -26.6408,-27.9321 -48.9293,-52.9664 -49.5145,-55.6538 -0.5848,-2.6878 0.8926,-5.6077 3.2836,-6.4662 2.3916,-0.8581 34.6522,-5.3688 71.6783,-10.017 37.472,-4.7044 68.9246,-10.2063 70.9693,-12.409 2.0205,-2.1774 5.2609,-8.722 7.2014,-14.5769 1.9407,-5.8552 25.7894,-48.3956 52.9844,-94.52561 27.1953,-46.1308 49.3643,-85.7681 49.2532,-88.0596 z m -49.8875,1365.96831 c 0.052,-6.3568 -11.4749,-26.3504 -15.6341,-26.3504 -1.537,0 -30.513,17.0191 -64.3648,37.8253 -33.852,20.8062 -62.6834,37.8252 -64.0665,37.8252 -5.8004,0 -5.1275,-7.1946 4.291,-47.7675 l 9.8879,-42.6841 -8.9178,-17.2681 c -4.9163,-9.4983 -10.2012,-17.2679 -11.7163,-17.2679 -1.5151,0 -4.2626,5.5496 -6.1193,12.3342 -1.8566,6.7847 -8.4144,30.0929 -14.5521,51.8041 -6.1376,21.711 -11.3266,42.92 -11.5296,47.1319 -0.2033,4.2122 10.2422,25.3606 23.1712,47.0199 12.9291,21.6589 25.8561,40.6048 28.7311,42.0862 2.8748,1.4813 11.1333,3.6574 18.3579,4.8216 7.2247,1.1645 30.4974,6.0322 51.7159,10.8392 21.2185,4.8071 39.4098,7.9164 40.4473,6.8772 3.2385,-3.2441 -14.855,-28.9515 -22.4998,-31.9571 -3.9975,-1.5712 -23.5392,-7.864 -43.3949,-13.9785 -23.6153,-7.2735 -36.4151,-12.8743 -37.052,-16.1844 -0.6642,-3.4572 18.396,-16.8869 60.2234,-42.4224 33.6715,-20.5573 61.9799,-39.2705 62.8724,-41.6003 0.1122,-0.2927 0.1491,-0.66 0.1491,-1.0841 z m -69.7378,-125.0249 c -0.05,-7.6714 -5.5782,-23.4801 -9.7388,-25.0797 -2.3962,-0.9208 -30.4178,5.9263 -62.2755,15.2123 -57.7452,16.8312 -70.2192,18.5833 -68.1708,9.6806 0.5945,-2.584 21.1307,-42.319 45.5965,-88.3212 24.466,-46.0026 44.4771,-86.8962 44.4771,-90.8627 0,-11.7237 -7.7333,-31.6175 -11.7536,-30.2749 -4.5038,1.5034 -62.7728,101.6147 -96.1555,165.2048 -25.5777,48.7222 -27.4856,56.7239 -19.8133,82.2287 2.1811,7.2499 6.3235,13.6006 9.2536,14.1658 5.6622,1.0924 163.6057,-44.3332 167.6473,-48.216 0.6551,-0.6292 0.9448,-1.9673 0.933,-3.7377 z m -73.3576,-253.5634 c 0.2186,-18.2129 -6.7227,-82.9373 -9.7758,-85.7421 -1.2576,-1.155 -30.3836,-13.3855 -64.7009,-27.2102 -70.8052,-28.5241 -72.1798,-29.2524 -69.7752,-35.3211 0.9681,-2.4441 29.2606,-21.2069 62.8724,-41.7123 l 61.1186,-37.3019 -0.073,-13.68 c -0.027,-7.5378 -1.2415,-15.6372 -2.7238,-17.9781 -2.0035,-3.1634 -22.4326,7.6898 -79.5888,42.2357 -42.289,25.5601 -80.2264,48.6019 -84.2898,51.2059 -8.0092,5.1317 -10.1516,23.3045 -4.4777,38.087 2.3364,6.0878 16.5207,13.1362 70.6335,35.2463 72.3,29.5415 83.3406,35.2626 78.1335,40.4787 -1.7736,1.7763 -33.1225,5.9562 -69.6634,9.2695 -36.5414,3.3136 -67.865,7.4679 -69.6262,9.232 -1.8211,1.8245 -2.2252,9.007 -0.9328,16.6701 2.2157,13.1371 2.5758,13.4931 15.3357,13.4931 7.1975,0 38.1433,-2.3827 68.7678,-5.2702 30.6247,-2.8875 57.6734,-4.4738 60.0739,-3.5507 2.4005,0.9225 5.2929,6.4382 6.4552,12.2595 2.0485,10.2606 2.5177,10.5084 15.6342,8.746 7.4409,-0.9998 14.6724,-3.0225 16.0445,-4.5224 0.3558,-0.3888 0.5287,-2.0329 0.5597,-4.6348 z m -90.6705,46.7583 c -0.061,-4.0869 -0.3118,-6.5911 -0.7461,-6.9895 -5.5964,-5.1304 -27.3829,-7.1172 -29.0671,-2.6539 -1.7803,4.7192 -10.902,128.7389 -10.2236,139.004 0.3122,4.7279 3.8568,7.1601 13.3207,9.1199 7.2396,1.4995 14.1756,1.3881 15.8208,-0.2617 3.4792,-3.4851 11.3224,-109.6112 10.8953,-138.2188 z"
       id="path4290"
       inkscape:connector-curvature="0"
       sodipodi:nodetypes="csccsssscscssssccsccscccsssccscsccscccsscccccscscscsccsccccscscccccccccccccscscscsscccccccssssccccsscscsscscccscccssscccccscscssccssscsscccssscccsccccccccccsccccscccccccccssscccsscscsscccscccccssssccsscscsscccscccccsccsccccsccsscsssssscsccsccccsccscccscccssccscsccssccscsccsscccssscsssccccccscssscccsccccsscccssccsscsscsccscsssssscccccscscccccccccccccccccccccccccscccsccscscscccccsscscccccssscsccccsccccscscssccccsscccccsccccscscccccccccsscscccccccccsccsccccccccsccssscccscsssccsccccsscssscccccccccscccsscssscscssccccscsscsssccccsccssssssccccccscccsscccsccccsccsccsccssscccscsccccscccccccccsssscsccccccscccccsccscscssscsscccccccccc" />
  </g>
</svg>
